<svg height="512" viewBox="0 0 58 60" width="512" xmlns="http://www.w3.org/2000/svg"><g id="003---Cooking" fill="none"><g id="Icons" transform="translate(1 1)"><path id="Shape" d="m3 45h50c1.6568542 0 3 1.3431458 3 3v10h-56v-10c0-1.6568542 1.34314575-3 3-3z" fill="#0377bc"/><path id="Shape" d="m3 45h47c1.6568542 0 3 1.3431458 3 3v10h-53v-10c0-1.6568542 1.34314575-3 3-3z" fill="#02a9f4"/><rect id="Rectangle-path" fill="#37474f" height="5" rx="1" width="12" x="22" y="49"/><rect id="Rectangle-path" fill="#607d8b" height="5" rx="1" width="9" x="22" y="49"/><circle id="Oval" cx="40.5" cy="51.5" fill="#d1d4d1" r="2.5"/><circle id="Oval" cx="49.5" cy="51.5" fill="#d1d4d1" r="2.5"/><path id="Shape" d="m12 20h32v19c0 3.3137085-2.6862915 6-6 6h-20c-3.3137085 0-6-2.6862915-6-6z" fill="#707070"/><path id="Shape" d="m12 20h29v19c0 3.3137085-2.6862915 6-6 6h-17c-3.3137085 0-6-2.6862915-6-6z" fill="#9e9e9e"/><path id="Shape" d="m38.95.2c-1.7645865.4745946-3.2023387 1.75300834-3.88 3.45l-5 16.35h8.79l6.84-11.69c.9681076-2.04646095.6609551-4.46870259-.7873017-6.20875633-1.4482568-1.74005373-3.774503-2.48179191-5.9626983-1.90124367zm2.23 3.95c1.01.45 1.3 2.04.63 3.55-.9 2.079-3.034 2.785-3.78 1.2-1.016-2.089 1.27-5.557 3.15-4.75z" fill="#f44335"/><path id="Shape" d="m45.7 8.31-6.84 11.69h-3l6.84-11.69c.7455196-1.55868313.7573084-3.36859164.0321563-4.93685402-.7251522-1.56826237-2.111735-2.73157486-3.7821563-3.17314598 2.1881953-.58054824 4.5144415.16118994 5.9626983 1.90124367 1.4482568 1.74005374 1.7554093 4.16229538.7873017 6.20875633z" fill="#c81e1e"/><path id="Shape" d="m40.5 55c-1.9329966 0-3.5-1.5670034-3.5-3.5s1.5670034-3.5 3.5-3.5 3.5 1.5670034 3.5 3.5-1.5670034 3.5-3.5 3.5zm0-5c-.8284271 0-1.5.6715729-1.5 1.5s.6715729 1.5 1.5 1.5 1.5-.6715729 1.5-1.5-.6715729-1.5-1.5-1.5z" fill="#ecf0f1"/><path id="Shape" d="m49.5 55c-1.9329966 0-3.5-1.5670034-3.5-3.5s1.5670034-3.5 3.5-3.5 3.5 1.5670034 3.5 3.5-1.5670034 3.5-3.5 3.5zm0-5c-.8284271 0-1.5.6715729-1.5 1.5s.6715729 1.5 1.5 1.5 1.5-.6715729 1.5-1.5-.6715729-1.5-1.5-1.5z" fill="#ecf0f1"/><g fill="#cfd8dc"><circle id="Oval" cx="40.5" cy="51.5" r="2.5"/><circle id="Oval" cx="49.5" cy="51.5" r="2.5"/></g></g><g id="Outline" fill="#000"><path id="Shape" d="m1 60h56c.5522847 0 1-.4477153 1-1v-10c0-2.209139-1.790861-4-4-4h-10.11c1.3492728-1.3136228 2.1102472-3.1168798 2.11-5v-12h5c2.209139 0 4-1.790861 4-4s-1.790861-4-4-4h-9.4l6-10.26c1.023144-2.24128514.7539229-4.86068115-.7037326-6.84699009-1.4576555-1.98630895-3.8757041-3.02878498-6.3206766-2.72498815-2.4449724.30379682-4.5343678 1.90633936-5.4615908 4.18897824l-4.784 15.643h-23.33c-2.209139 0-4 1.790861-4 4s1.790861 4 4 4h5v12c-.0002472 1.8831202.7607272 3.6863772 2.11 5h-10.11c-2.209139 0-4 1.790861-4 4v10c0 .5522847.44771525 1 1 1zm52-36c0 1.1045695-.8954305 2-2 2h-5v-4h5c1.1045695 0 2 .8954305 2 2zm-16-18.98c.7427908-1.83880115 2.5381776-3.03305581 4.5211726-3.0073917s3.7468733 1.26598312 4.4418274 3.1233917c.4526312 1.19017883.4075846 2.51238671-.125 3.669l-6.552 11.195h-6.865zm-30 20.98c-1.1045695 0-2-.8954305-2-2s.8954305-2 2-2h5v4zm7 14v-18h30v18c-.0033061 2.7600532-2.2399468 4.9966939-5 5h-20c-2.7600532-.0033061-4.9966939-2.2399468-5-5zm-12 9c0-1.1045695.8954305-2 2-2h50c1.1045695 0 2 .8954305 2 2v9h-54z"/><path id="Shape" d="m34 49h-10c-1.1045695 0-2 .8954305-2 2v3c0 1.1045695.8954305 2 2 2h10c1.1045695 0 2-.8954305 2-2v-3c0-1.1045695-.8954305-2-2-2zm-10 5v-3h10v3z"/><path id="Shape" d="m41.5 49c-1.9329966 0-3.5 1.5670034-3.5 3.5s1.5670034 3.5 3.5 3.5 3.5-1.5670034 3.5-3.5-1.5670034-3.5-3.5-3.5zm0 5c-.8284271 0-1.5-.6715729-1.5-1.5s.6715729-1.5 1.5-1.5 1.5.6715729 1.5 1.5-.6715729 1.5-1.5 1.5z"/><path id="Shape" d="m50.5 49c-1.9329966 0-3.5 1.5670034-3.5 3.5s1.5670034 3.5 3.5 3.5 3.5-1.5670034 3.5-3.5-1.5670034-3.5-3.5-3.5zm0 5c-.8284271 0-1.5-.6715729-1.5-1.5s.6715729-1.5 1.5-1.5 1.5.6715729 1.5 1.5-.6715729 1.5-1.5 1.5z"/><path id="Shape" d="m16.28 6.3c-1.553 1.566-1.2 4.491.094 5.482.5264161.7593396.496408 1.7731264-.074 2.5-.2500859.2558022-.344706.6255924-.2482178.9700742s.3694259.6113203.716.7.7141319-.014272.9642178-.2700742c1.54-1.57 1.187-4.481-.106-5.469-.5347594-.75941703-.4967039-1.782413.093-2.5 2.293-2.309.3-6.7-1.309-5.506-.2326073.17484252-.3782092.44175865-.3992957.73198512-.0210864.29022648.0844043.5753858.2892957.78201488.6053651.75577347.5970136 1.832706-.02 2.579z"/><path id="Shape" d="m21.527 6.3c-1.55 1.563-1.206 4.483.1 5.483.5255114.75987.4946984 1.7734548-.076 2.5-.2071143.2055286-.3141307.4912654-.2929867.7822831.0211439.2910176.1683389.5582847.4029867.7317169.4083484.2980576.9743946.2471434 1.323-.119 1.3989905-1.5712324 1.3523673-3.9546806-.107-5.47-.5348214-.75953608-.4963478-1.78277028.094-2.5 2.292-2.309.3-6.7-1.31-5.506-.2326073.17484252-.3782092.44175865-.3992957.73198512-.0210864.29022648.0844043.5753858.2892957.78201488.6077123.75737294.5976751 1.83804552-.024 2.584z"/><path id="Shape" d="m26.527 6.3c-1.55 1.563-1.206 4.483.1 5.483.5255114.75987.4946984 1.7734548-.076 2.5-.2071143.2055286-.3141307.4912654-.2929867.7822831.0211439.2910176.1683389.5582847.4029867.7317169.4083484.2980576.9743946.2471434 1.323-.119 1.3989905-1.5712324 1.3523673-3.9546806-.107-5.47-.5348214-.75953608-.4963478-1.78277028.094-2.5 2.29-2.307.306-6.7-1.31-5.506-.2326073.17484252-.3782092.44175865-.3992957.73198512-.0210864.29022648.0844043.5753858.2892957.78201488.6077123.75737294.5976751 1.83804552-.024 2.584z"/><path id="Shape" d="m41.962 11.255c2.5-1.6 3.1-5.929.621-7.017s-5.254 2.29-4.736 5.214c.0866538.9296881.6710982 1.7390835 1.5263253 2.113804.8552271.3747204 1.8464551.2557106 2.5886747-.310804zm-1.9-3.755c.428-.976 1.133-1.462 1.554-1.462.929 0 .7 2.613-.733 3.532-1.148.739-1.346-.87-.821-2.07z"/><path id="Shape" d="m17 24c-.5522847 0-1 .4477153-1 1v1c0 .5522847.4477153 1 1 1s1-.4477153 1-1v-1c0-.5522847-.4477153-1-1-1z"/><path id="Shape" d="m17 29c-.5522847 0-1 .4477153-1 1v10c0 .5522847.4477153 1 1 1s1-.4477153 1-1v-10c0-.5522847-.4477153-1-1-1z"/></g></g></svg>