<?xml version="1.0" encoding="iso-8859-1"?>
<!-- Generator: Adobe Illustrator 19.0.0, SVG Export Plug-In . SVG Version: 6.00 Build 0)  -->
<svg version="1.1" id="Capa_1" xmlns="http://www.w3.org/2000/svg" xmlns:xlink="http://www.w3.org/1999/xlink" x="0px" y="0px"
	 viewBox="0 0 512.002 512.002" style="enable-background:new 0 0 512.002 512.002;" xml:space="preserve">
<g>
	<g>
		<polygon style="fill:#37BBDA;" points="192.143,257.29 190.138,151.13 10,247.14 10,302.329 141.748,269.751 		"/>
		<path style="fill:#37BBDA;" d="M268.132,257.29l2.004-106.16l180.138,96.01v36.174c-19.381-13.434-42.904-21.313-68.272-21.313
			c-17.952,0-34.979,3.949-50.273,11.016l-13.203-3.266L268.132,257.29z"/>
	</g>
	<path style="fill:#F95C4B;" d="M382.002,502.001c66.094,0,120-53.906,120-120s-53.906-120-120-120
		c-66.095,0-120.001,53.906-120.001,120S315.907,502.001,382.002,502.001z"/>
	<path style="fill:#69DAF4;" d="M265.518,353.044l2.339-95.754l2.279-106.436l0.624-29.113l1.488-69.492
		C272.745,29.02,253.236,10,229.999,10s-42.745,19.018-42.249,42.25l1.316,61.453l1.071,37.428l2.005,106.16l2.637,107.928
		l-44.273,38.33v46.453l79.493-27.385l46.107,15.883c-9.001-16.838-14.104-36.07-14.104-56.498c0-9.971,1.224-19.656,3.517-28.918
		L265.518,353.044L265.518,353.044z"/>
</g>
<path d="M460,278.065V247.14c0-3.688-2.029-7.076-5.28-8.816l-174.455-93.389l1.98-92.472c0.292-13.663-4.905-26.662-14.635-36.602
	C257.742,5.78,244.033,0,229.995,0.001c-14.034,0-27.742,5.781-37.608,15.86c-9.73,9.939-14.927,22.938-14.635,36.602l1.318,61.525
	l0.894,31.232L5.296,238.314C2.037,240.053,0,243.445,0,247.14v55.191c0,3.075,1.415,5.979,3.836,7.874
	c2.42,1.895,5.578,2.572,8.564,1.834l119.348-29.513v11.031c0,5.522,4.477,10,10,10s10-4.478,10-10V277.58l30.702-7.592
	l2.217,90.757l-40.707,35.244c-2.194,1.899-3.454,4.658-3.454,7.561v46.451c0,3.232,1.562,6.265,4.193,8.142
	c1.717,1.225,3.752,1.858,5.808,1.858c1.094,0,2.194-0.18,3.256-0.545l76.236-26.263l39.292,13.536
	C291.763,485.706,333.869,512,382.002,512c71.682,0,130-58.317,130-130C512.002,339.56,491.557,301.807,460,278.065z M440,253.129
	v12.5c-11.875-5.936-24.559-9.978-37.681-12.036c-0.239-0.038-0.477-0.078-0.716-0.115c-0.747-0.113-1.497-0.215-2.247-0.314
	c-0.444-0.061-0.887-0.119-1.332-0.174c-0.653-0.081-1.307-0.155-1.961-0.226c-0.554-0.06-1.11-0.116-1.666-0.169
	c-0.586-0.055-1.172-0.109-1.759-0.156c-0.646-0.053-1.293-0.097-1.942-0.141c-0.519-0.033-1.038-0.07-1.558-0.099
	c-0.763-0.041-1.528-0.071-2.294-0.099c-0.419-0.016-0.837-0.037-1.257-0.048c-1.191-0.032-2.385-0.052-3.584-0.052h-0.001l0,0
	c-17.835,0-35.077,3.54-51.304,10.527l-2.449-0.605v-9.4c0-5.522-4.477-10-10-10s-10,4.478-10,10v4.455l-30.223-7.475l1.759-82.141
	L440,253.129z M277.549,269.988l28.015,6.928c-11.083,8.083-20.843,17.873-28.892,28.981L277.549,269.988z M141.748,242.523
	c-5.523,0-10,4.478-10,10v9.4L20,289.557v-36.415l160.448-85.516l1.546,81.872l-30.246,7.48v-4.455
	C151.748,247,147.271,242.523,141.748,242.523z M258.222,421.762l-24.966-8.601c-2.11-0.727-4.403-0.727-6.514,0l-66.236,22.818
	v-27.86l40.819-35.341c2.259-1.956,3.524-4.818,3.452-7.805l-2.637-107.928v-0.001l-2.004-106.104c0-0.019-0.003-0.036-0.004-0.054
	c0-0.016,0.002-0.029,0.002-0.044l-2.386-98.809l0,0c-0.176-8.241,2.996-16.12,8.932-22.184c6.128-6.26,14.626-9.851,23.321-9.851
	c8.69-0.001,17.189,3.59,23.318,9.851c5.936,6.064,9.109,13.942,8.933,22.184l-2.112,98.605l-2.279,106.402v0.003l-2.313,94.72
	c-0.044,0.184-0.08,0.368-0.123,0.552c-0.16,0.684-0.309,1.372-0.459,2.06c-0.094,0.433-0.194,0.864-0.284,1.299
	c-0.239,1.156-0.462,2.319-0.671,3.487c-0.024,0.139-0.045,0.278-0.069,0.417c-0.183,1.048-0.354,2.1-0.511,3.156
	c-0.044,0.296-0.083,0.593-0.125,0.889c-0.128,0.9-0.249,1.803-0.358,2.709c-0.042,0.347-0.08,0.693-0.119,1.041
	c-0.096,0.855-0.185,1.714-0.264,2.574c-0.034,0.373-0.068,0.744-0.1,1.117c-0.07,0.841-0.13,1.684-0.184,2.529
	c-0.024,0.379-0.051,0.758-0.072,1.137c-0.048,0.873-0.084,1.749-0.115,2.626c-0.012,0.34-0.029,0.679-0.039,1.019
	c-0.033,1.204-0.053,2.411-0.053,3.623c0,1.539,0.037,3.068,0.09,4.595c0.011,0.298,0.021,0.595,0.034,0.892
	c0.494,11.823,2.572,23.243,6.031,34.053C258.179,421.613,258.199,421.689,258.222,421.762z M382.002,492.001
	c-47.237,0-87.611-29.931-103.164-71.82c-0.098-0.264-0.195-0.527-0.29-0.791c-0.2-0.553-0.396-1.107-0.587-1.664
	c-0.211-0.616-0.416-1.234-0.617-1.854c-0.091-0.281-0.184-0.56-0.273-0.842c-2.32-7.393-3.862-15.037-4.588-22.779
	c-0.01-0.104-0.018-0.209-0.028-0.313c-0.085-0.929-0.154-1.859-0.215-2.79c-0.015-0.23-0.03-0.459-0.043-0.688
	c-0.049-0.835-0.086-1.671-0.116-2.508c-0.009-0.257-0.022-0.513-0.029-0.771c-0.031-1.06-0.049-2.119-0.049-3.18
	c0-1.045,0.018-2.09,0.047-3.135c0.009-0.307,0.024-0.611,0.035-0.916c0.027-0.749,0.059-1.496,0.102-2.243
	c0.02-0.341,0.042-0.681,0.065-1.021c0.048-0.726,0.103-1.45,0.165-2.175c0.028-0.328,0.057-0.657,0.088-0.985
	c0.072-0.767,0.155-1.531,0.244-2.295c0.032-0.277,0.061-0.555,0.095-0.831c0.123-0.992,0.257-1.982,0.407-2.971
	c0.007-0.043,0.012-0.087,0.019-0.131c0.152-0.997,0.322-1.991,0.501-2.984c0.078-0.429,0.164-0.855,0.246-1.283
	c0.105-0.542,0.212-1.084,0.324-1.625c0.114-0.543,0.233-1.084,0.354-1.624c0.088-0.393,0.18-0.784,0.272-1.176
	c10.862-45.784,50.414-80.586,98.542-84.279c0.116-0.009,0.233-0.015,0.35-0.023c0.804-0.06,1.61-0.112,2.42-0.153
	c0.349-0.018,0.698-0.027,1.047-0.042c0.594-0.025,1.187-0.053,1.783-0.068c0.955-0.024,1.912-0.038,2.872-0.038
	c0.008,0,0.016,0,0.023,0c1.239,0,2.474,0.028,3.708,0.069c0.333,0.011,0.665,0.024,0.997,0.038
	c1.093,0.046,2.184,0.105,3.272,0.184c0.156,0.012,0.313,0.017,0.468,0.029c1.155,0.088,2.304,0.201,3.452,0.325
	c0.436,0.047,0.871,0.097,1.305,0.149c0.818,0.098,1.633,0.207,2.447,0.323c0.66,0.095,1.318,0.194,1.974,0.3
	c0.736,0.118,1.471,0.242,2.203,0.376c0.633,0.115,1.264,0.237,1.893,0.363c0.432,0.087,0.861,0.179,1.292,0.271
	c1.416,0.303,2.824,0.628,4.219,0.984c0.094,0.024,0.188,0.047,0.282,0.07c47.386,12.246,82.491,55.359,82.491,106.518
	C492.002,442.655,442.656,492.001,382.002,492.001z"/>
<path d="M423.656,340.346c-3.906-3.904-10.237-3.904-14.143,0L382,367.859l-27.513-27.514c-3.905-3.905-10.236-3.904-14.143,0
	c-3.905,3.905-3.905,10.237,0,14.143l27.513,27.514l-27.513,27.514c-3.905,3.905-3.905,10.237,0,14.143
	c1.953,1.952,4.512,2.929,7.071,2.929c2.559,0,5.119-0.977,7.071-2.929L382,396.145l27.513,27.514
	c1.953,1.953,4.512,2.929,7.071,2.929c2.559,0,5.119-0.977,7.071-2.929c3.905-3.905,3.905-10.237,0-14.143l-27.513-27.514
	l27.513-27.514C427.561,350.583,427.561,344.251,423.656,340.346z"/>
<path d="M151.75,223.556c0-5.522-4.477-10-10-10s-10,4.478-10,10v0.236c0,5.522,4.477,10,10,10s10-4.478,10-10V223.556z"/>
<path d="M318.25,233.792c5.523,0,10-4.478,10-10v-0.236c0-5.522-4.477-10-10-10s-10,4.478-10,10v0.236
	C308.25,229.314,312.727,233.792,318.25,233.792z"/>
<g>
</g>
<g>
</g>
<g>
</g>
<g>
</g>
<g>
</g>
<g>
</g>
<g>
</g>
<g>
</g>
<g>
</g>
<g>
</g>
<g>
</g>
<g>
</g>
<g>
</g>
<g>
</g>
<g>
</g>
</svg>
