<?xml version="1.0" encoding="iso-8859-1"?>
<!-- Generator: Adobe Illustrator 18.1.1, SVG Export Plug-In . SVG Version: 6.00 Build 0)  -->
<svg version="1.1" id="Capa_1" xmlns="http://www.w3.org/2000/svg" xmlns:xlink="http://www.w3.org/1999/xlink" x="0px" y="0px"
	 viewBox="0 0 22.039 22.039" style="enable-background:new 0 0 22.039 22.039;" xml:space="preserve">
<g>
	<path style="fill:#010002;" d="M3.782,11.166v4.388c0.611-0.593,1.917-1.002,3.433-1.002c2.066,0,3.745,0.762,3.8,1.709h0.011
		c0.055-0.947,1.731-1.709,3.802-1.709c1.516,0,2.818,0.409,3.432,1.002v-4.388l-7.237,2.957L3.782,11.166z M3.109,12.795
		c0-0.614-0.45-1.118-1.038-1.209V9.884l8.947,3.657l11.021-4.502l-11.02-4.504L0,9.039l1.69,0.688v1.856
		c-0.588,0.092-1.04,0.596-1.04,1.21c0,0.481,0.282,0.897,0.688,1.099c-0.277,0.765-0.463,2.096-0.463,3.613h2.007
		c0-1.52-0.185-2.852-0.463-3.613C2.829,13.693,3.109,13.277,3.109,12.795z"/>
</g>
<g>
</g>
<g>
</g>
<g>
</g>
<g>
</g>
<g>
</g>
<g>
</g>
<g>
</g>
<g>
</g>
<g>
</g>
<g>
</g>
<g>
</g>
<g>
</g>
<g>
</g>
<g>
</g>
<g>
</g>
</svg>
