<?xml version="1.0" encoding="iso-8859-1"?>
<!-- Generator: Adobe Illustrator 16.0.0, SVG Export Plug-In . SVG Version: 6.00 Build 0)  -->
<!DOCTYPE svg PUBLIC "-//W3C//DTD SVG 1.1//EN" "http://www.w3.org/Graphics/SVG/1.1/DTD/svg11.dtd">
<svg version="1.1" id="Capa_1" xmlns="http://www.w3.org/2000/svg" xmlns:xlink="http://www.w3.org/1999/xlink" x="0px" y="0px"
	 width="516.375px" height="516.375px" viewBox="0 0 516.375 516.375" style="enable-background:new 0 0 516.375 516.375;"
	 xml:space="preserve">
<g>
	<g>
		<polygon points="283.05,439.875 321.3,439.875 348.075,401.625 309.825,401.625 		"/>
		<polygon points="225.675,439.875 263.925,439.875 290.7,401.625 252.45,401.625 		"/>
		<polygon points="405.45,401.625 367.2,401.625 340.425,439.875 378.675,439.875 		"/>
		<polygon points="118.575,401.625 57.375,401.625 57.375,439.875 91.8,439.875 		"/>
		<path d="M114.75,516.375h286.875C434.138,516.375,459,491.513,459,459H57.375C57.375,491.513,82.237,516.375,114.75,516.375z"/>
		<path d="M401.625,210.375v-66.938C401.625,65.025,336.6,0,258.188,0C179.775,0,114.75,65.025,114.75,143.438v66.938
			c-32.513,0-57.375,24.862-57.375,57.375V382.5H459V267.75C459,237.15,434.138,210.375,401.625,210.375z M344.25,210.375H172.125
			v-66.938c0-47.812,38.25-86.062,86.062-86.062s86.062,38.25,86.062,86.062V210.375z"/>
		<polygon points="397.8,439.875 459,439.875 459,401.625 424.575,401.625 		"/>
		<polygon points="168.3,439.875 206.55,439.875 233.325,401.625 195.075,401.625 		"/>
		<polygon points="110.925,439.875 149.175,439.875 175.95,401.625 137.7,401.625 		"/>
	</g>
</g>
<g>
</g>
<g>
</g>
<g>
</g>
<g>
</g>
<g>
</g>
<g>
</g>
<g>
</g>
<g>
</g>
<g>
</g>
<g>
</g>
<g>
</g>
<g>
</g>
<g>
</g>
<g>
</g>
<g>
</g>
</svg>
