<?xml version="1.0" ?><!DOCTYPE svg  PUBLIC '-//W3C//DTD SVG 1.1//EN'  'http://www.w3.org/Graphics/SVG/1.1/DTD/svg11.dtd'><svg enable-background="new 0 0 512 512" id="Layer_1" version="1.1" viewBox="0 0 512 512" xml:space="preserve" xmlns="http://www.w3.org/2000/svg" xmlns:xlink="http://www.w3.org/1999/xlink"><g><path d="M236.3,335.8c-1.9,7.7-3.6,14.5-5.3,21.3c-1.9,7.8-3.7,15.6-5.5,23.4c-2.2,9.5-3.9,19.1-6.7,28.3c-4,13.1-8,26.2-13.4,38.7   c-5,11.5-11.6,22.4-17.9,33.3c-5.2,8.9-11.1,17.5-16.9,26.1c-0.9,1.3-3.4,2.6-4.5,2.2c-1.4-0.5-3-2.7-3.2-4.3   c-3.8-30.3-5.8-60.8-1.8-91.2c1.6-12.3,4.9-24.3,7.4-36.5c1.6-8,3.2-16.1,4.9-24.2c2.1-9.9,4.3-19.9,6.5-29.8   c3.2-14.6,6.5-29.1,9.8-43.7c2.7-11.7,5.3-23.5,8.2-35.2c1.4-5.6-1.5-10.2-2.8-15.2c-4.3-17.2-7-34.3-3.8-52.2   c2.3-12.9,5.7-25.2,13-36.1c9.5-14.2,22.3-23.5,40.4-22.5c15.5,0.9,26.3,11,30.3,25.3c4.5,15.8,2.5,31.6-1.6,47.2   c-4.4,17-9.1,33.8-13.4,50.8c-2.7,10.6-6.6,21.2-7.2,32c-0.9,16.1,5.4,30.2,19.5,39.3c11.2,7.2,23.1,8.6,36.3,5.4   c17.5-4.3,29.6-15.2,39.8-29c12.1-16.3,18.9-34.8,24.2-54.3c6.5-24.2,9-48.6,8.5-73.5c-0.4-23-6.5-44.3-19.5-63.3   c-9.8-14.2-22.7-24.8-38.7-31.8c-10.2-4.5-20.3-8.4-31.5-8.9c-12.1-0.5-24.3-2.6-36.2-1.4c-35.9,3.9-65.6,19.7-88,48.5   c-8.9,11.5-16,24-20.7,37.5c-7.2,20.8-10.4,42.4-8.3,64.5c1.5,15.5,6,30.4,16.2,42.4c7,8.2,5.7,16.2,3.3,25   c-1.3,4.6-2.5,9.2-3.5,13.9c-1.7,8.4-6.4,12.7-16.1,8c-19.4-9.4-31.7-24.9-40.3-44.1c-12-26.9-14.1-55.3-11.3-83.9   c3.3-32.4,15.8-61.7,35-88c13.9-19,31.2-34.4,51.4-46.5c15.8-9.5,32.6-16.2,50.4-20.8c23.1-6,46.5-7.8,70-5.9   c17.6,1.4,34.6,5.6,51.1,12.4c28.5,11.8,51.8,29.9,70,54.6c10.8,14.7,19.1,30.8,24.5,48.4c3.2,10.4,5.9,20.8,6.2,31.7   c0.4,12.3,1.8,24.6,1.1,36.7c-0.7,12.9-3.3,25.8-5.3,38.6c-3.3,21.2-10.4,41.2-19.9,60.3c-8.2,16.4-18.5,31.3-31.8,44.2   c-13.4,13-28.8,22.7-46.4,29.1c-16.7,6.1-33.8,8.3-51.2,6.2c-20.7-2.6-38.2-11.9-51.3-28.7C239.4,339.1,238,337.7,236.3,335.8z"/></g></svg>