<?xml version="1.0" encoding="iso-8859-1"?><!-- Generator: Adobe Illustrator 19.2.1, SVG Export Plug-In . SVG Version: 6.00 Build 0)  --><svg xmlns="http://www.w3.org/2000/svg" xmlns:xlink="http://www.w3.org/1999/xlink" version="1.1" id="Layer_1" x="0px" y="0px" viewBox="0 0 80 80" style="enable-background:new 0 0 80 80;" xml:space="preserve" width="80" height="80">
<g>
	<g>
		<path style="fill:#8BB7F0;" d="M26.569,53.862C30.209,50.4,34.959,48.5,40,48.5s9.791,1.9,13.431,5.362L40,67.293L26.569,53.862z"/>
		<g>
			<path style="fill:#4E7AB5;" d="M40,49c4.74,0,9.216,1.724,12.71,4.876L40,66.586l-12.71-12.71C30.784,50.724,35.26,49,40,49      M40,48c-5.523,0-10.523,2.239-14.142,5.858L40,68l14.142-14.142C50.523,50.239,45.523,48,40,48L40,48z"/>
		</g>
	</g>
	<g>
		<path style="fill:#8BB7F0;" d="M59.796,47.497C54.456,42.336,47.446,39.5,40,39.5s-14.456,2.836-19.796,7.997l-6.365-6.365    C20.88,34.271,30.15,30.5,40,30.5s19.12,3.771,26.161,10.632L59.796,47.497z"/>
		<g>
			<path style="fill:#4E7AB5;" d="M40,31c9.549,0,18.546,3.593,25.447,10.139l-5.66,5.659C54.399,41.762,47.412,39,40,39     s-14.399,2.762-19.787,7.799l-5.659-5.659C21.454,34.593,30.451,31,40,31 M40,30c-10.493,0-19.993,4.253-26.87,11.13l7.071,7.071     C25.268,43.134,32.268,40,40,40c7.732,0,14.732,3.134,19.799,8.201l7.071-7.071C59.993,34.253,50.493,30,40,30L40,30z"/>
		</g>
	</g>
	<g>
		<path style="fill:#8BB7F0;" d="M72.525,34.768C63.785,26.208,52.254,21.5,40,21.5S16.215,26.208,7.475,34.768l-6.363-6.363    C11.552,18.144,25.342,12.5,40,12.5s28.448,5.644,38.889,15.904L72.525,34.768z"/>
		<g>
			<path style="fill:#4E7AB5;" d="M40,13c14.357,0,27.875,5.464,38.178,15.408l-5.658,5.658C63.729,25.633,52.22,21,40,21     S16.271,25.633,7.48,34.066l-5.658-5.658C12.125,18.464,25.642,13,40,13 M40,12c-15.464,0-29.464,6.268-39.598,16.402     l7.071,7.071C15.797,27.149,27.297,22,40,22c12.703,0,24.203,5.149,32.527,13.473l7.071-7.071C69.464,18.268,55.464,12,40,12     L40,12z"/>
		</g>
	</g>
</g>
</svg>