<?xml version="1.0" encoding="iso-8859-1"?>
<!-- Generator: Adobe Illustrator 19.0.0, SVG Export Plug-In . SVG Version: 6.00 Build 0)  -->
<svg version="1.1" id="Capa_1" xmlns="http://www.w3.org/2000/svg" xmlns:xlink="http://www.w3.org/1999/xlink" x="0px" y="0px"
	 viewBox="0 0 511.999 511.999" style="enable-background:new 0 0 511.999 511.999;" xml:space="preserve">
<path style="fill:#FFDBC4;" d="M355.151,263.321c3.032-7.878,5.194-16.094,6.434-24.444c0.956-6.443-0.35-14.73,5.977-18.763
	c3.54-2.257,7.842-3.002,11.544-4.981c7.096-3.793,11.276-12.386,9.881-20.31s-8.261-14.572-16.225-15.712
	c-2.11-0.302-4.372-0.287-6.173-1.427c-1.389-0.879-2.303-2.333-3.056-3.795c-4.62-8.981-4.693-19.5-5.885-29.529
	c-1.764-14.835-6.646-30.059-17.655-40.158c-6.883-6.314-15.648-10.16-24.434-13.328c-21.56-7.773-44.349-12.126-67.256-12.846
	c-10.137-0.319-20.448,0.094-30.107,3.187c-7.946,2.545-15.246,6.848-21.852,11.944c-8.356,6.447-15.692,13.939-24.104,20.394
	c-9.746,7.48-19.493,14.96-29.239,22.439c-9.624,7.386-19.338,14.858-27.063,24.213c-7.724,9.355-13.396,20.897-13.545,33.028
	c-0.14,11.408,4.468,23.371-0.012,33.864c-1.598,3.742-4.303,7.083-4.949,11.1c-0.529,3.287,0.397,6.622,1.443,9.783
	c3.529,10.665,10.739,22.365,21.97,22.652c4.034,0.103,8.325-1.323,11.962,0.427c2.753,1.324,4.402,4.158,5.828,6.858
	c4.254,8.057,8.03,16.431,13.427,23.771s12.718,13.706,21.568,15.868c3.934,0.961,8.125,1.091,11.77,2.855s6.616,6.004,5.129,9.77
	c-0.839,2.123-2.833,3.52-4.658,4.892c-12.888,9.692-21.919,24.376-24.756,40.25c-1.174,6.57-1.28,13.551,1.322,19.697
	s8.352,11.259,15.015,11.647c5.503,0.32,10.655-2.462,15.461-5.16c11.697-6.566,23.394-13.131,35.091-19.697
	c5.761-3.234,11.564-6.497,16.59-10.786c6.355-5.425,11.264-12.318,15.953-19.235c4.044-5.966,8.101-12.366,8.58-19.558
	c0.479-7.192-3.992-15.236-11.144-16.133c2.434-4.601,4.937-9.507,4.604-14.701s-4.75-10.491-9.901-9.74
	c0.451-4.567,0.902-9.135,1.353-13.702c0.123-1.25,0.232-2.582-0.349-3.695c-1.551-2.969-6.082-1.883-8.86-0.012
	s-6.272,4.209-9.137,2.472c-1.652-1.002-2.332-3.024-2.802-4.898c-2.78-11.09-2.452-22.919,0.801-33.872
	c1.491-5.019,2.397-8.564,7.047-10.819c4.861-2.358,9.476-5.911,15.045-6.309c3.42-0.244,6.812,0.787,9.944,2.182
	c6.397,2.85,12.08,7.288,16.396,12.804c6.113,7.813,9.268,18.369,16.57,25.218c3.184,2.987,7.178,4.721,10.48,7.817
	c4.527,4.245,9.056,8.487,13.584,12.731c6.768,6.343,13.54,12.689,20.619,18.683c7.511,6.36,15.367,12.322,22.574,19.024
	c2.341,2.177,4.811,5.261,3.623,8.228c-1.191,2.973-5.072,3.484-8.245,3.918c-3.323,0.455-6.59,1.326-9.699,2.585
	c-0.816,0.33-1.662,0.72-2.169,1.439c-0.966,1.37-0.316,3.262,0.465,4.746c6.9,13.107,22.779,20.818,37.346,18.136
	c2.293-0.422,4.575-1.087,6.559-2.312c4.185-2.581,6.54-7.293,8.162-11.935c2.52-7.207,3.785-15.042,2.208-22.513
	c-0.435-2.061-1.107-4.124-2.4-5.787c-1.092-1.403-2.568-2.449-4.021-3.474c-13.668-9.635-27.336-19.27-41.004-28.905
	c-2.669-1.882-6.222-4.174-7.576-7.305C347.141,271.348,353.568,267.434,355.151,263.321z"/>
<path style="fill:#76746E;" d="M289.735,18.195c6.427,3.821,12.317,8.632,19.221,11.5c2.582,1.072,5.296,1.868,7.707,3.282
	c3.403,1.995,5.995,5.092,8.514,8.127c4.208,5.069,8.454,10.194,11.408,16.083c2.323,4.629,3.804,9.648,6.199,14.24
	c8.333,15.972,26.895,25.382,32.993,42.334c5.02,13.957,0.284,29.304-0.028,44.133c-0.1,4.75,0.222,9.711-1.757,14.029
	c-1.051,2.291-2.707,4.27-4.617,5.915c-4.095,3.526-9.663,5.585-14.983,4.635c-5.32-0.95-10.106-5.296-10.733-10.664
	c-0.8-6.841,4.598-14.589,0.458-20.093c-2.751-3.657-8.828-4.466-10.137-8.852c-0.386-1.292-0.252-2.674-0.116-4.015
	c0.438-4.299,0.877-8.598,1.315-12.897c0.147-1.446,0.174-3.18-1.007-4.028c-0.732-0.526-1.707-0.521-2.607-0.472
	c-4.408,0.243-9.039,1.036-13.083-0.732c-4.314-1.886-6.961-6.29-8.665-10.679s-2.783-9.081-5.307-13.055
	c-3.118,2.326-2.314,7.085-3.155,10.883c-1.227,5.539-6.687,9.517-12.333,10.07s-11.279-1.839-15.674-5.427
	c-5.696-4.65-9.659-11.377-10.965-18.613c-4.553,11.109-9.242,22.629-14.924,33.264c-0.688,1.288-1.488,2.654-2.834,3.222
	c-2.81,1.186-5.554-1.751-7.088-4.387c-5.909-10.153-9.832-21.457-11.483-33.088c-4.742,8.493-9.484,16.986-14.226,25.479
	c-3.335,5.973-6.715,12.009-11.355,17.036c-3.854,4.176-8.497,7.561-13.375,10.477c-2.064,1.234-4.656,2.403-6.762,1.242
	c-1.486-0.819-2.439-2.689-4.13-2.828c-1.004-0.082-1.927,0.501-2.764,1.061c-1.792,1.198-3.584,2.396-5.375,3.594
	c-1.407,0.941-2.846,1.911-3.837,3.283c-1.557,2.155-1.788,4.956-2.538,7.507c-2.076,7.062-8.107,12.125-13.835,16.748
	c-2.372,1.915-9.393,1.699-9.739,5.037c-0.14,1.356,0.5,2.656,1.102,3.879c6.531,13.259,10.705,27.676,12.269,42.373
	c0.569,5.345,0.053,12.033-4.851,14.232c-4.608,2.067-9.861-1.512-12.735-5.665s-4.74-9.19-8.761-12.246
	c-3.876-2.946-9.535-3.417-13.744-0.969c-0.922,0.537-1.816,1.214-2.874,1.354c-0.875,0.116-1.75-0.153-2.591-0.419
	c-3.34-1.056-6.68-2.112-10.02-3.168c-3.611-1.142-7.267-2.304-10.47-4.326c-3.202-2.022-5.953-5.034-6.841-8.716
	c-1.088-4.509,0.718-9.151,2.391-13.477c4.214-10.902,7.803-22.212,8.43-33.883c0.197-3.659,0.1-7.33,0.306-10.989
	c0.406-7.201,1.994-14.335,4.683-21.028c2.066-5.145,4.766-10.008,7.066-15.053c3.962-8.69,7.611-18.403,9.532-27.782
	c1.671-8.158,7.967-12.549,15.206-16.375c3.076-1.626,6.411-3.259,8.165-6.264c0.833-1.426,1.238-3.062,1.491-4.694
	c1.489-9.625-2.012-19.483-0.651-29.126c0.14-0.994,0.358-2.034,1.029-2.78c1.78-1.978,5.045-0.56,7.121,1.103
	c2.806,2.249,5.367,4.801,7.626,7.599c7.667-6.989,5.648-21.472,14.553-26.796c1.192-0.713,2.64-1.204,3.964-0.786
	c1.353,0.427,2.247,1.681,3.04,2.857c2.793,4.14,5.587,8.279,8.38,12.419c2.865-4.197,5.882-8.538,10.3-11.05
	s10.666-2.585,14.028,1.226c1.936,2.194,3.072,5.625,5.956,6.12c1.197,0.205,2.405-0.192,3.555-0.583
	c6.487-2.212,12.975-4.423,19.462-6.635c5.836-1.989,12.296-5.366,18.508-5.294C264.936,6.746,279.432,12.07,289.735,18.195z"/>
<path style="fill:#F9F8EF;" d="M234.761,245.856c0.843-6.205,2.306-12.484,5.742-17.719s9.158-9.295,15.42-9.366
	c8.173-0.093,14.847,6.219,20.361,12.253c8.123,8.888,15.866,18.123,23.202,27.671c7.532,9.804,14.674,19.984,23.446,28.696
	c13.238,13.149,30.127,22.916,40.353,38.523c1.355,2.068,2.524,4.983,0.859,6.811c-1.444,1.586-3.973,1.169-6.099,0.891
	c-6.32-0.829-12.932,0.83-18.112,4.543c-1.065,0.763-2.095,1.639-2.719,2.791c-0.902,1.664-0.838,3.684-0.497,5.546
	c0.831,4.53,3.125,8.643,4.557,13.021c1.432,4.377,1.888,9.512-0.723,13.305c-3.858,5.604-12.108,5.522-18.761,4.098
	c-6.653-1.424-14.018-3.488-19.903-0.074c-4.609,2.673-6.889,7.964-9.042,12.838c-2.477,5.607-5.223,11.192-9.264,15.802
	c-4.041,4.61-9.552,8.202-15.653,8.795c-8.342,0.811-16.884-4.696-19.589-12.629c-1.205-3.536-1.329-7.335-1.442-11.069
	c-0.164-5.435-0.327-10.869-0.491-16.304c-0.093-3.093-0.176-6.26,0.789-9.2c2.541-7.736,11.256-11.471,16.148-17.98
	c6.809-9.059,4.266-23.666-5.204-29.89c1.308-3.61,3.28-6.965,4.406-10.636s1.29-7.922-0.862-11.102s-7.169-4.48-9.955-1.837
	c0.989-7.04,1.977-14.08,2.966-21.119c-0.107,0.766-11.849,2.821-13.159,3.126c-3.552,0.828-5.625,1.571-6.849-2.255
	C232.124,265.372,233.651,254.022,234.761,245.856z"/>
<path style="fill:#31D1F6;" d="M162.535,384.889c-1.379-5.67-2.768-11.506-1.956-17.285c1.102-7.836,6.071-14.502,10.876-20.788
	c5.859-7.665,11.718-15.331,17.577-22.996c0.849-1.111,1.74-2.343,1.702-3.741c-0.059-2.17-2.258-3.598-4.273-4.404
	c-7.795-3.119-16.748-2.95-24.127-6.953c-7.136-3.87-11.732-11.03-16.93-17.265c-1.008-1.209-2.214-2.478-3.782-2.598
	c-1.238-0.095-2.401,0.561-3.429,1.257c-5.236,3.546-9.216,8.634-14.034,12.73c-5.763,4.901-12.626,8.303-18.865,12.582
	c-17.329,11.886-29.23,30.061-39.53,48.377c-6.021,10.706-13.639,24.009-12.581,36.684c0.535,6.412-0.74,12.945-0.979,19.423
	c-0.277,7.489,0.007,15.016,1.242,22.417c2.291,13.737,8.081,27.216,18.173,36.813c12.3,11.697,29.447,16.473,45.877,20.74
	c10.442,2.712,21.742,5.34,31.766,1.351c3.087-1.228,5.962-3.062,9.211-3.757c4.458-0.953,9.049,0.342,13.461,1.487
	c14.443,3.75,29.277,5.994,44.183,6.685c9.106,0.422,17.202-1.419,26.191-0.052c10.723,1.631,21.616,2.756,32.456,1.723
	c14.349-1.367,28.049-6.438,41.559-11.464c8.608-3.202,17.216-6.404,25.824-9.606c9.324-3.469,20.092-8.643,21.471-18.495
	c0.077-0.55,0.124-1.117,0.358-1.621c1.044-2.252,4.382-1.525,6.662-0.541c15.162,6.55,32.489,8.6,48.43,4.283
	c15.942-4.318,30.258-15.315,37.246-30.28c4.007-8.582,5.553-18.09,6.581-27.505c1.112-10.196,1.628-20.758-1.658-30.474
	c-2.215-6.55-6.057-12.407-9.912-18.147c-7.225-10.756-14.638-21.386-22.234-31.884c-4.09-5.652-8.779-11.645-15.551-13.323
	c-3.656-0.906-7.973-0.202-10.355,2.715c-1.191,1.458-1.789,3.309-2.183,5.149c-1.151,5.369-0.776,10.951-1.595,16.38
	c-0.819,5.429-3.218,11.104-8.083,13.648c-5.457,2.854-12.09,0.929-17.887-1.148c-7.546-2.704-15.509-5.965-19.951-12.638
	c-2.761-4.149-5.035-10.089-10.019-10.131c-3.452-0.029-6.186,3.247-6.87,6.631c-0.683,3.384,0.142,6.863,0.759,10.26
	c1.338,7.372,1.697,14.922,1.062,22.387c-0.153,1.801-0.389,3.67-1.37,5.187c-1.722,2.662-5.258,3.511-8.427,3.401
	c-8.459-0.293-16.932-5.675-24.903-2.829c-8.709,3.11-11.31,13.795-15.674,21.949c-2.14,3.999-4.959,7.633-8.3,10.701
	c-3.84,3.525-8.687,6.388-13.898,6.292c-8.397-0.155-12.09-8.689-13.309-15.835c-1.829-10.718,3.188-22.124-0.386-32.393
	c-13.071,8.612-26.367,17.332-41.323,21.951c-2.95,0.911-6.005,1.681-8.593,3.363c-5.129,3.332-7.623,9.691-12.652,13.173
	c-6.438,4.456-14.419,2.125-19.972-2.609C163.318,398.511,164.364,392.404,162.535,384.889z"/>
<path style="fill:#387BD2;" d="M213.137,459.192c1.42-0.964,3.161-1.97,4.752-1.324c0.852,0.346,1.452,1.103,2.094,1.761
	c1.848,1.896,4.256,3.126,6.618,4.323c4.621,2.343,9.243,4.685,13.864,7.028c0.942,0.477,2.004,0.967,3.014,0.661
	c0.617-0.187,1.108-0.645,1.575-1.09c3.003-2.856,6.005-5.711,9.008-8.567c3.213-3.056,7.333-6.356,11.59-5.115
	c1.622,0.473,2.979,1.56,4.329,2.576c5.304,3.991,11.179,7.223,17.389,9.566c0.892,0.337,1.864,0.659,2.781,0.396
	c0.92-0.264,1.575-1.056,2.169-1.806c3.414-4.31,6.827-8.62,10.241-12.93c1.961-2.475,4.002-5.02,6.79-6.502
	c3.934-2.092,8.765-1.722,12.998-0.332c3.678,1.207,5.046,4.64,8.859,5.538c3.553,0.836,7.422-0.145,10.991-0.396
	c8.366-0.589,16.924,2.873,22.528,9.113c1.327,1.477,2.544,3.239,2.58,5.224c0.053,2.984-2.496,5.298-4.899,7.068
	c-10.24,7.542-21.866,13.196-34.121,16.595c-10.855,3.011-22.113,4.251-33.156,6.478c-10.687,2.155-21.217,5.242-32.06,6.371
	c-7.253,0.755-14.566,0.625-21.857,0.493c-19.942-0.359-39.884-0.719-59.827-1.078c-3.477-0.063-7.309-0.264-9.823-2.668
	c-2.476-2.368-2.868-6.383-1.542-9.541c1.326-3.159,4.082-5.532,7.099-7.155c1.752-0.943,3.68-1.719,4.966-3.237
	c1.212-1.429,1.693-3.333,2.689-4.92c2.011-3.204,9.002-3.639,12.384-5.705C202.63,466.676,207.834,462.794,213.137,459.192z"/>
<path d="M465.853,394.194c-1.932-14.367-5.657-27.918-12.109-40.891c-6.653-13.379-17.251-24.883-29.862-32.792
	c-6.241-3.914-11.987-7.067-18.949-9.632c-2.307-0.85-5.287-1.767-8.252-2.921c-1.049-0.954-2.158-1.883-3.406-2.764
	c-10.955-7.736-21.163-14.024-30.433-23.942c-3.188-3.41-6.196-6.014-9.408-8.074c8.324-7.423,11.737-21.988,13.63-31.768
	c0.809-4.18,1.575-8.376,1.835-12.634c0.102-1.677,0.059-3.35,0.107-5.031c0.005-0.178-0.002-0.327-0.017-0.458
	c0.066-0.016,0.124-0.024,0.199-0.046c7.416-2.146,14.915-2.397,20.842-7.997c9.424-8.904,7.233-24.442-1.929-32.788
	c-3.423-3.119-7.271-5.226-11.28-6.363c5.18-8.755,5.459-22.551,6.714-30.961c2.235-14.976-2.344-30.744-8.057-44.46
	c-2.774-6.66-6.599-12.817-11.431-18.208c-5.541-6.182-14.658-9.291-18.828-16.68c-4.082-7.233-5.422-15.746-9.994-22.928
	c-4.013-6.302-9.642-11.045-15.574-15.466c-7.4-5.515-13.858-8.021-22.759-10.076c-8.982-2.073-15.011-6.896-23.02-11.058
	c-13.789-7.166-28.932-5.972-43.275-0.933c-2.536,0.89-17.598,9.118-16.458,9.603c-1.297-0.552-3.245-5.32-4.518-6.517
	c-1.721-1.618-3.907-3.056-6.211-3.658c-5.707-1.492-11.694,1.551-15.923,5.148c-2.432,2.068-4.493,4.548-6.327,7.154
	c-0.254,0.362-0.538,0.904-0.841,1.529c-0.601-2.307-1.076-4.712-1.514-5.768c-1.213-2.921-2.507-6.139-4.476-8.644
	c-3.092-3.934-7.392-5.34-12.075-3.109c-9.023,4.3-11.93,16.627-12.981,27.642c-2.793-3.285-5.909-6.204-9.648-7.313
	c-7.967-2.363-11.263,5.687-12.026,12.196c-0.422,3.602-0.563,7.253-0.184,10.855c0.412,3.914,3.391,9.357,2.982,13.12
	c-0.749,6.876-9.348,7.081-14.372,9.633c-4.499,2.285-8.39,5.448-10.737,9.977c-3.294,6.356-1.582,11.384-1.576,17.953
	c0.007,7.944-8.275,14.089-11.956,20.801c-2.895,5.278-4.21,10.749-4.366,16.767c-0.207,7.979,1.92,15.94,0.379,23.892
	c-1.578,8.143-6.778,15.195-10.497,22.452c-6.151,12.005-9.49,24.35-0.228,35.965c5.435,6.815,13.845,10.048,22.348,10.844
	c-2.469,2.709-4.382,5.747-5.399,8.757c-6.068,17.976,6.793,34.14,24.239,37.483c2.679,0.513,12.191-0.405,13.661,0.993
	c1.821,1.73,2.819,9.192,4.09,11.975c0.559,1.224,1.117,2.439,1.678,3.647c-9.935,1.863-21.439,10.951-28.241,15.732
	c-13.014,9.149-24.569,20.021-34.323,32.6c-20.584,26.546-33.784,63.216-30.18,96.937c3.253,30.436,23.302,62.389,52.727,73.436
	c21.354,8.016,45.733,5.119,65.865-5.406c6.285,3.112,12.84,4.245,20.305,5.287c10.294,1.437,20.837,2.906,31.22,3.429
	c21.477,1.082,43.376,1.193,64.759-1.38c20.76-2.499,40.637-8.604,60.203-15.761c9.069-3.318,17.301-7.269,25.335-12.684
	c2.952-1.989,5.687-4.057,7.09-6.845c9.37,3.954,19.654,5.726,30.668,4.399c25.685-3.094,51.962-17.322,61.301-42.547
	C469.336,422.549,467.711,408.007,465.853,394.194z M360.325,294.836c5.53,6.137,11.875,10.824,18.8,15.283
	c8.681,5.588,14.726,9.697,15.592,20.736c0.656,8.355-0.411,18.574-9.201,22.053c-9.962,3.941-21.035-2.511-26.323-11.094
	c-1.258-2.043-2.167-4.196-3.241-6.124c4.464,1.096,9.695,3.111,13.129,0.369c11.186-8.929-8.677-27.455-15.079-31.807
	c-14.765-10.038-26.957-20.37-38.208-33.681c6.945,3.193,14.849,4.889,21.988,6.813
	C348.612,280.303,353.148,286.869,360.325,294.836z M210.529,338.181c8.572-6.627,16.922-13.607,24.424-21.442
	c5.409-5.65,12.226-18.463,20.502-20.016c8.462-1.588,3.212,6.429,0.796,10.49c-4.912,8.258-11.189,15.458-16.984,23.084
	c-5.876,7.732-12.173,17.764-20.896,22.574c-0.727,0.401-0.429,1.667,0.436,1.61c9.52-0.625,16.975-7.581,23.459-14.006
	c3.077-3.049,24.111-25.684,20.575-8.497c-0.668,3.244-2.758,6.233-4.533,8.982c-6.83,10.577-15.122,21.858-24.985,29.768
	c-9.795,7.855-22.094,9.63-31.97,17.14c-4.93,1.644-9.583,4.318-12.641,8.117c-1.248,1.55-2.287,5.591-3.878,6.648
	c-2.658,1.765-7.01-0.062-9.618-1.385c-7.535-3.822-10.551-11.783-10.849-19.824c-0.498-13.436,6.176-28.459,15.266-38.109
	c0.248-0.263,0.521-0.534,0.795-0.807c6.615-3.905,12.63-10.144,17.767-14.628c10.59-9.242,17.597-20.775,27.02-30.988
	c4.619-5.006,9.532-9.962,14.882-14.2c0.718-0.569,7.538-6.2,9.214-6.032c4.909,0.492,1.539,5.411,0.709,7.649
	c-0.107,0.287-0.205,0.568-0.304,0.848c-0.371,0.196-0.729,0.471-1.055,0.86c-6.434,7.677-11.451,16.721-17.452,24.806
	c-3.516,4.737-7.357,8.567-11.535,12.68c-4.287,4.223-6.374,9.031-10.209,13.614C208.835,337.874,209.772,338.767,210.529,338.181z
	 M210.805,394.304c0.274-0.203,0.546-0.41,0.812-0.628c8.313-2.381,16.691-5.232,23.78-9.941c3.954-2.627,7.592-5.718,10.972-9.086
	c-2.844,13.001-2.6,27.738,5.11,38.287c9.425,12.897,30.093,8.781,39.299-2.433c5.848-7.123,5.496-15.4,8.712-23.407
	c4.461-11.105,20.923-2.769,29.754-2.242c0.34,0.02,0.658,0.012,0.986,0.016c-0.44,2.373-0.934,4.676-1.12,6.384
	c-0.841,7.74-1.744,15.503-1.155,23.304c0.886,11.725,3.883,22.459,10.923,31.93c0.884,1.19,1.799,2.353,2.732,3.5
	c-0.813,0.214-1.741,0.235-3.179-0.004c-2.805-0.466-5.582-2.348-8.14-3.565c-3.636-1.729-7.361-3.692-11.193-4.983
	c-6.966-2.348-12.054-1.39-16.832,4.333c-3.243,3.884-5.139,9.15-8.527,12.805c-4.088,4.409-8.941,5.448-13.917,1.613
	c-0.997-0.769-1.935-1.616-2.951-2.361c-5.595-4.104-12.46-8.898-19.739-5.778c-2.673,1.146-4.712,3.542-6.611,5.65
	c-1.732,1.924-4.424,7.905-6.238,8.956c-6.479,3.754-15.54-11.262-22.035-13.372c-6.32-2.054-12.125,2.385-16.876,6.06
	c-1.146,0.887-2.34,1.825-3.548,2.804c3.89-7.605,6.93-15.659,9.045-23.758C213.976,426.485,217.084,406.691,210.805,394.304z
	 M281.573,277.179c9.585,15.007,19.808,28.193,31.131,41.892c5.381,6.51,10.139,13.764,15,20.668
	c2.157,3.063,3.956,6.828,6.467,9.826c1.498,6.351,6.266,16.782-0.14,21.543c-5.509,4.094-13.858,0.279-19.452-0.639
	c-5.296-0.868-10.543-1.256-15.613,0.774c-1.208,0.484-2.266,1.071-3.222,1.729c-0.59-7.328-2.084-14.481-4.117-22.186
	c-3.405-12.901-5.793-25.99-8.756-38.973c-0.506-2.218-3.603-1.543-3.763,0.509c-0.91,11.673,2.18,23.845,4.346,35.285
	c2.124,11.214,4.396,22.116,6.151,33.293c-4.236,9.864-3.445,23.112-16.287,26.58c-24.198,6.535-14.588-30.667-17.267-44.095
	c1.144-1.533,2.264-3.079,3.331-4.645c5.593-8.205,13.259-16.367,14.124-26.778c0.326-3.926-0.176-8.837-2.443-12.202
	c-1.949-2.892-4.441-3.455-7.078-4.486c1.216-3.113,3.932-6.929,4.725-9.457c1.267-4.043,1.711-7.458-0.094-11.437
	c-2.674-5.895-6.619-6.076-11.511-6.082c1.144-3.396,3.945-9.947,4.075-11.229c0.395-3.897,0.132-8.035-3.558-10.334
	c-5.363-3.341-12.674-0.313-18.944,3.684c0.402-12.224-1.874-24.919,4.669-35.933c4.657-7.838,13.022-14.587,22.393-9.487
	c7.758,4.222,10.891,13.498,15.335,20.514c7.392,11.67,17.05,21.703,25.575,32.518c8.325,10.56,17.056,19.406,28.035,27.327
	c6.048,4.363,13.148,7.289,18.887,12.043c3.072,2.545,5.03,5.363,7.445,8.47c-0.433-0.556,0.938,2.193,1.991,3.038
	c-1.416-0.306-4.22-1.103-4.621-1.169c-7.37-1.214-17.271-0.718-22.224,5.742c-0.97,1.266-1.649,2.569-2.118,3.897
	c-4.4-7.309-9.997-14.221-15.082-20.408c-11.473-13.961-23.599-27.614-35.384-41.338
	C282.634,274.532,280.795,275.963,281.573,277.179z M82.979,193.389c3.166-10.786,11.276-19.596,13.824-30.734
	c2.458-10.743-2.074-21.591,0.119-32.183c2.496-12.057,15.677-17.052,19.179-28.246c1.342-4.29,0.324-7.989-0.176-12.275
	c-0.836-7.166,1.973-10.765,8.128-13.826c6.112-3.039,15.025-4.496,17.384-12.003c1.451-4.619-8.126-33.346-3.876-34.328
	c3.267-0.755,10.319,11.988,12.402,14.403c2.767,3.208,7.684,0.446,7.859-3.255c0.241-5.108,2.12-32.035,9.697-29.44
	c2.978,1.02,3.892,10.818,4.651,13.554c1.004,3.62,2.125,5.708,5.157,7.893c1.474,1.062,3.847,0.908,5.338,0
	c4.21-2.564,5.869-7.558,8.962-11.252c2.125-2.537,6.027-7.048,9.937-5.234c1.193,0.554,3.142,5.007,4.09,6.083
	c8.196,9.298,16.82-1.577,25.166-4.969c14.782-6.008,28.651-6.473,42.354,2.041c4.754,2.954,9.218,5.979,14.583,7.705
	c7.703,2.478,15.007,2.831,21.928,7.602c6.712,4.629,12.655,9.654,16.701,16.836c3.122,5.541,4.59,11.681,7.104,17.447
	c5.4,12.383,19.254,17.017,26.461,28.146c7.319,11.302,11.583,26.668,11.765,40.114c0.091,6.727-1.446,14.016-2.727,20.598
	c-0.995,5.113-1.947,13.047-4.646,17.567c-1.244,0.252-2.48,0.588-3.698,1.017c-1.382,0.028-2.783,0.006-4.231-0.152
	c-9.265-1.013-6.659-9.538-4.86-16.698c1.153-4.587,3.002-9.675-1.055-13.526c-4.569-4.337-9.974-0.683-11.317-8.314
	c-1.406-7.992,8.015-23.121-6.607-23.103c-3.238,0.004-6.548,1.578-9.838,0.596c-4.739-1.414-7.164-6.374-8.628-10.673
	c-1.894-5.562-0.99-12.209-4.339-17.164c-2.942-4.352-8.66-3.24-10.505,1.373c-2.64,6.602-7.338,30.328-18.962,21.69
	c-7.607-5.653-8.836-18.453-14.827-25.732c-1.069-1.3-3.578-1.999-5.153-1.362c-4.836,1.955-5.749,5.245-7.26,9.931
	c-3.108,9.641-6.199,19.046-10.877,28.069c-2.188,4.221-3.613,5.551-5.446-0.168c-1.548-4.829-1.906-9.938-2.053-14.972
	c-0.252-8.648,2.317-19.073-0.561-27.273c-1.38-3.932-6.176-5.54-9.339-2.465c-4.294,4.173-6.381,10.59-8.89,15.933
	c-3.623,7.714-7.025,15.546-10.862,23.158c-3.529,7.002-7.494,13.87-12.44,19.979c-1.551,1.916-4.038,5.798-6.504,6.514
	c-6.621,1.925-7.431-3.081-9.735-6.438c-1.039-1.514-2.894-2.515-4.762-1.938c-5.803,1.792-6.528,11.596-8.232,16.385
	c-2.169,6.094-14.518,35.447-24.93,22.948c-2.252-2.704-6.554-0.381-6.617,2.741c-0.081,3.962,2.105,8.394,3.391,12.054
	c2.482,7.064,5.263,13.979,7.984,20.947c2.816,7.214,7.797,17.038,3.411,24.634c-6.046,10.47-8.49-1.528-11.253-6.28
	c-3.127-5.376-7.579-9.672-13.524-10.347c-4.606-1.139-9.52-0.059-13.962,2.273C94.669,217.615,78.289,209.365,82.979,193.389z
	 M110.184,259.564c-8.432-4.711-11.706-15.466-8.475-24.294c1.037-2.833,3.56-6.118,6.714-8.706c1.33-0.887,2.828-1.62,4.713-2.038
	c9.269-2.051,12.853,2.809,15.721,10.56c3.139,8.485,7.291,17.921,18.29,12.431c11.482-5.732,11.544-19.201,8.14-29.739
	c-2.285-7.074-5.533-13.804-8.293-20.695c-1.478-3.692-4.125-8.672-5.827-13.453c5.975,1.008,12.597-1.992,17.279-6.57
	c4.6-4.498,7.846-10.453,10.305-16.332c0.634-1.515,3.074-9.115,4.39-14.145c2.066,3.16,4.491,5.756,9.194,6.49
	c7.717,1.204,13.376-4.051,18.107-9.45c7.008-7.996,12.194-16.947,16.737-26.521c2.116-4.459,4.142-8.962,6.197-13.451
	c-0.059,5.01,0.071,10.035,0.875,14.988c1.235,7.604,4.25,19.012,13.512,19.967c9.769,1.006,14.322-9.434,17.646-16.711
	c2.224-4.869,4.082-9.822,5.637-14.941c0.175-0.577,0.828-4.185,1.546-7.555c5.605,10.917,9.012,25.525,23.94,24.522
	c8.823-0.593,13.787-6.905,17.256-14.363c1.433,3.868,3.413,7.649,6.097,10.735c3.1,3.564,6.473,5.671,11.149,6.573
	c2.602,0.502,6.254-0.552,9.283-0.948c-0.237,3.95-1.714,8.757-1.568,12.043c0.161,3.646,0.79,7.925,3.218,10.791
	c2.498,2.949,7.745,2.616,9.772,4.891c1.843,2.069-2.121,11.376-2.184,14.847c-0.125,6.821,1.726,14.754,9.127,16.523
	c5.523,1.32,11.857-0.289,17.709-2.249c0.143,0.008,0.285,0.025,0.428,0.036c0.611,0.182,1.255,0.255,1.898,0.192
	c8.082,1.039,15.568,5.062,16.953,14.068c2.814,18.298-17.877,10.262-25.422,18.727c-2.471,2.771-1.779,6.008-1.931,9.398
	c-0.273,6.082-1.608,12.227-3.168,18.095c-2.457,9.244-7.84,17.002-11.518,25.504c-1.911-0.56-3.921-1.053-6.155-1.451
	c-5.84-1.039-11.847-1.139-17.563-2.836c-5.1-1.515-10.309-4.234-15.178-6.869c-3.128-3.384-6.314-6.713-9.366-10.209
	c-6.641-7.606-11.158-17.06-18.449-23.984c-12.663-12.025-29.663-11.598-40.896,2.044c-11.103,13.484-10.808,34.621-4.96,50.476
	c-0.871,0.698-1.67,1.354-2.356,1.917c-12.295,10.093-19.832,22.455-30.131,34.273c-0.793,0.91-1.609,1.874-2.413,2.813
	c-4.994-0.722-9.936-0.766-14.984-2.62c-7.747-2.847-15.349-6.019-21.542-11.569c-4.754-4.26-7.844-9.25-10.666-14.926
	c-2.905-5.844-4.587-12.799-7.966-18.329C134.842,257.428,119.521,264.779,110.184,259.564z M164.823,487.118
	c-16.118,10.717-37.154,13.482-55.891,9.779c-17.511-3.461-31.362-16.311-40.505-31.125c-20.577-33.34-12.904-72.828,4.885-105.647
	c8.472-15.63,20.471-29.067,34.003-40.501c6.901-5.831,14.41-10.831,21.901-15.858c3.76-2.523,7.555-6.176,11.492-8.856
	c2.756,5.231,5.967,10.119,10.498,14.289c8.785,8.085,22.563,16.49,35.386,16.885c-2.63,3.004-5.304,5.985-8.066,8.794
	c-2.998,2.449-5.886,4.998-8.516,7.831c-0.118,0.095-0.232,0.204-0.35,0.299c-0.241,0.193-0.379,0.404-0.473,0.619
	c-1.226,1.38-2.382,2.837-3.469,4.374c-7.659-0.813-15.421,3.853-21.929,7.455c-9.408,5.207-17.332,11.119-25.187,18.47
	c-15.682,14.678-25.193,35.258-23.163,56.771c0.322,3.416,6.012,4.916,6.567,0.889c2.618-18.993,10.053-36.708,23.505-50.751
	c10.69-11.159,23.094-19.658,36.581-26.808c-6.404,12.165-10.153,27.035-5.885,40.328c3.696,11.511,15.767,21.595,28.382,20.972
	c6.676-0.329,9.467-4.908,12.312-10.166c0.811-1.498,1.811-2.705,2.929-3.738c0.536,2.364,0.915,5.561,1.093,6.711
	c0.783,5.088,0.698,10.041,0.018,15.116c-1.033,7.713-2.711,15.369-5.58,22.63C189.019,461.92,179.452,477.392,164.823,487.118z
	 M357.813,469.867c-8.579,5.34-16.914,9.38-26.437,12.88c-18.96,6.967-38.724,12.944-58.962,14.559
	c-18.649,1.489-37.066,1.482-55.746,1.108c-13.82-0.276-27.684-2.62-41.495-3.746c4.641-3.457,8.914-7.361,12.68-11.678
	c2.261-2.592,4.355-5.356,6.347-8.207c5.459-4.317,10.809-8.843,16.631-12.462c5.94-3.693,9.931-3.17,15.013,1.877
	c2.915,2.895,6.092,6.132,9.321,8.681c4.178,3.299,8.781,5.044,13.063,0.927c7.115-6.841,9.89-20.501,22.687-11.391
	c5.696,4.055,12.433,12.123,20.36,9.55c6.491-2.107,9.321-10.529,12.703-15.768c4.829-7.48,8.411-9.984,17.071-6.135
	c4.728,2.101,9.134,4.882,13.811,7.033c5.097,2.344,8.407,1.551,11.875-1.289c4.345,4.549,9.095,8.62,14.21,12.029
	C359.889,468.509,358.85,469.222,357.813,469.867z M445.865,444.134c-10.323,13.097-29.711,20.517-45.968,21.894
	c-15.559,1.317-29.919-5.008-41.073-15.49c-11.04-10.375-17.85-22.179-18.943-37.458c-0.542-7.582-0.713-17.899,1.234-25.262
	c0.957-3.619,2.892-7.389,4.363-11.217c3.538,4.622,8.377,8.434,14.616,11.123c18.647,8.035,38.202,3.852,53.402-8.997
	c1.5-1.268-0.103-4.142-1.974-3.391c-15.193,6.098-29.038,9.679-45.242,4.244c-9.242-3.1-15.201-9.24-19.703-16.685
	c-1.376-5.104-4.113-10.241-5.109-15.337c-0.979-5.013,0.303-8.46,3.049-10.439c6.004,14.823,20.207,29.422,37.291,27.759
	c19.736-1.921,26.528-21.068,24.116-38.514c-0.284-2.052-0.714-3.951-1.258-5.754c12.922,6.94,24.114,15.422,32.639,27.754
	c9.29,13.438,13.936,28.77,16.376,44.803C456.376,410.877,457.608,429.237,445.865,444.134z"/>
<path d="M178.102,223.475c5.094-1.148,6.041-8.569,9.456-11.902c3.324-3.245,7.685-5.811,12.043-7.395
	c9.47-3.441,13.739,0.324,21.736,4.381c4.27,2.167,8.923-2.228,6.579-6.579c-6.682-12.4-20.772-13.851-32.918-9.025
	c-6.743,2.68-13.567,7.25-17.965,13.086C174.668,209.181,168.223,225.704,178.102,223.475z"/>
<path d="M308.612,187.4c2.977-0.674,7.759-0.914,10.689,0.161c3.007,1.102,4.849,4.044,6.994,6.263
	c1.557,1.612,4.807,1.413,5.841-0.753c7.033-14.729-14.079-19.477-24.325-17.584c-6.101,1.128-12.503,5.119-16.816,9.475
	c-2.445,2.471-7.797,10.729-4.411,13.98C291.422,203.587,303.289,188.606,308.612,187.4z"/>
<path d="M118.211,234.816c-2.503-0.407-12.675,2.51-9.501,6.71c0.581,0.769,1.71,1.353,2.635,0.691
	c0.096-0.069,0.191-0.137,0.287-0.206c0.551-0.394,0.836-0.976,0.673-1.654c0.27,1.126-0.604,0.921,0.567,1.187
	c0.375,0.085,1.012-0.115,1.389-0.169c1.345-0.193,2.372-0.507,3.525,0.412c0.449,0.358,0.873,0.941,1.225,1.594
	c-1.39,0.406-2.655,1.054-3.668,2.365c-1.403,1.817-2.208,5.277-1.502,7.514c0.366,1.159,1.641,1.382,2.524,0.666
	c1.246-1.009,2.465-2.512,3.779-3.351c1.173-0.75,3.009-0.583,4.35-0.88c1.449-0.321,2.796-1.993,2.674-3.512
	C126.768,241.203,123.451,235.667,118.211,234.816z"/>
<path d="M360.745,205.475c1.44,1.008,3.534,0.231,4.381-1.149c2.121-3.455,7.001-0.17,9.814-2.905c0.768-0.747,0.771-2.089,0-2.837
	c-2.465-2.392-5.7-2.884-9.02-2.397c-0.278,0.041-0.539,0.107-0.801,0.173c0.377-0.532,0.739-0.982,0.955-1.202
	c1.65-1.679,3.866-2.752,6.161-3.189c1.63-0.311,1.068-2.562-0.366-2.701c-4.518-0.436-8.713,1.21-11.598,4.802
	C357.548,197.461,356.74,202.673,360.745,205.475z"/>
<g>
</g>
<g>
</g>
<g>
</g>
<g>
</g>
<g>
</g>
<g>
</g>
<g>
</g>
<g>
</g>
<g>
</g>
<g>
</g>
<g>
</g>
<g>
</g>
<g>
</g>
<g>
</g>
<g>
</g>
</svg>
