<svg id="Layer_1" enable-background="new 0 0 512 512" height="512" viewBox="0 0 512 512" width="512" xmlns="http://www.w3.org/2000/svg"><path d="m491.14 268.019v220.71h-470.28v-220.71h60.82v32.67h41v-32.67h266.64v32.67h41v-32.67z" fill="#ff6a47"/><path d="m504.5 133.189v134.83h-74.18v-48.8h-41v48.8h-266.64v-48.8h-41v48.8h-74.18v-134.83z" fill="#ff6a47"/><path d="m81.681 219.223h41v81.469h-41z" fill="#feee81"/><path d="m73.848 300.692v38.039l9.662 17.496h37.343l9.662-17.496v-38.039z" fill="#e3edf6"/><path d="m314 355.107h-32.987v-32.987h-46.529v32.987h-32.987v46.529h32.987v32.987h46.529v-32.987h32.987z" fill="#e3edf6"/><path d="m340.234 23.27h-168.468c-29.059 0-52.7 23.641-52.7 52.7v56.713h42.381v-56.712c0-5.69 4.629-10.319 10.319-10.319h168.468c5.69 0 10.319 4.629 10.319 10.319v56.713h42.381v-56.713c0-29.06-23.641-52.701-52.7-52.701z" fill="#e3edf6"/><path d="m389.319 219.223h41v81.469h-41z" fill="#feee81"/><path d="m381.485 300.692v38.039l9.662 17.496h37.343l9.662-17.496v-38.039z" fill="#e3edf6"/><path d="m389.32 219.219h41v81.47h-41z" fill="#feee81"/><path d="m389.319 219.223h41v81.469h-41z" fill="#feee81"/><path d="m430.32 268.019h20v32.67h-20z" fill="#e21743"/><path d="m122.68 268.019h20v32.67h-20z" fill="#e21743"/><path d="m20.86 268.019h20v220.71h-20z" fill="#e21743"/><path d="m7.5 133.189h20v134.83h-20z" fill="#e21743"/><path d="m122.68 219.219h20v48.8h-20z" fill="#e21743"/><path d="m430.32 219.219h20v48.8h-20z" fill="#e21743"/><path d="m81.681 219.223h20v81.469h-20z" fill="#fcad42"/><g fill="#c5d9ec"><path d="m93.848 300.692h-20v38.039l9.662 17.496h20l-9.662-17.496z"/><path d="m234.484 322.12h20v32.987h-20z"/><path d="m234.484 401.636h20v32.987h-20z"/><path d="m201.497 355.107h20v46.528h-20z"/><path d="m191.766 23.27h-20c-29.059 0-52.7 23.641-52.7 52.7v56.713h20v-56.712c0-29.06 23.641-52.701 52.7-52.701z"/><path d="m360.234 65.652h-20c5.69 0 10.319 4.629 10.319 10.319v56.713h20v-56.713c0-5.69-4.63-10.319-10.319-10.319z"/><path d="m401.485 300.692h-20v38.039l9.662 17.496h20l-9.662-17.496z"/></g><path d="m389.32 219.219h20v81.47h-20z" fill="#fcad42"/><path d="m512 125.689h-111.565v-49.718c0-33.194-27.006-60.2-60.201-60.2h-168.468c-33.194 0-60.2 27.006-60.2 60.2v49.719h-111.566v149.83h13.36v220.71h417.29v-15h-402.29v-205.71h45.82v17.672h-7.832v47.472l12.736 23.063h46.194l12.736-23.063v-47.472h-7.833v-17.672h49.259v-15h-49.259v-48.796c-113.739 0-11.622-.004-56.001-.004v48.8h-59.18v-119.83h482v119.83h-59.18v-48.8c0-.1-56-.096-56 .004-.101 0-.002-1.016-.002 48.796h-187.378v15h187.378v17.672h-7.833v47.472l12.736 23.063h46.194l12.736-23.063v-47.472h-7.832v-17.672h45.819v205.71h-37.988v15h52.989v-220.71h13.361zm-396.82 167.5h-25.999v-66.466h25.999zm7.835 43.609-6.588 11.929h-28.491l-6.588-11.929v-28.606h41.667zm3.55-260.827c0-24.923 20.277-45.2 45.2-45.2h168.468c24.924 0 45.201 20.277 45.201 45.2v49.213h-27.382v-49.213c0-9.825-7.994-17.819-17.819-17.819h-168.467c-9.825 0-17.818 7.994-17.818 17.819v49.213h-27.382v-49.213zm42.382 0c0-1.554 1.264-2.819 2.818-2.819h168.468c1.555 0 2.819 1.265 2.819 2.819v49.719h-174.105zm253.871 150.753v66.465h-25.998v-66.465zm7.834 110.074-6.588 11.929h-28.491l-6.588-11.929v-28.606h41.667z"/><path d="m288.513 442.123v-32.987h32.987v-61.528h-32.987v-32.988h-61.528v32.987h-32.987v61.528h32.987v32.987h61.528zm-79.516-47.987v-31.528h32.987v-32.988h31.528v32.987h32.988v31.528h-32.987v32.987h-31.528v-32.987h-32.988z"/><path d="m320.434 201.312h-68.867v-15h68.867zm-83.868 0h-15v-15h15zm-30 0h-15v-15h15z" fill="#fff"/></svg>