<?xml version="1.0" ?><svg enable-background="new 0 0 192 192" id="windows" version="1.1" viewBox="0 0 192 192" xml:space="preserve" xmlns="http://www.w3.org/2000/svg" xmlns:xlink="http://www.w3.org/1999/xlink"><g><path d="M88,0H4C1.7891,0,0,1.7891,0,4v84c0,2.2109,1.7891,4,4,4h84c2.2109,0,4-1.7891,4-4V4   C92,1.7891,90.2109,0,88,0z" fill="#1C71DA"/><rect fill="#5CB0FF" height="76" width="76" x="8" y="8"/><path d="M88,100H4c-2.2109,0-4,1.7891-4,4v84c0,2.2109,1.7891,4,4,4h84c2.2109,0,4-1.7891,4-4v-84   C92,101.7891,90.2109,100,88,100z" fill="#1C71DA"/><rect fill="#D0E8FF" height="76" width="76" x="8" y="108"/><path d="M188,100h-84c-2.2109,0-4,1.7891-4,4v84c0,2.2109,1.7891,4,4,4h84c2.2109,0,4-1.7891,4-4v-84   C192,101.7891,190.2109,100,188,100z" fill="#1C71DA"/><rect fill="#5CB0FF" height="76" width="76" x="108" y="108"/><path d="M188,0h-84c-2.2109,0-4,1.7891-4,4v84c0,2.2109,1.7891,4,4,4h84c2.2109,0,4-1.7891,4-4V4   C192,1.7891,190.2109,0,188,0z" fill="#1C71DA"/><rect fill="#D0E8FF" height="76" width="76" x="108" y="8"/></g><path d="M38.1759,158.5146c-1.0234,0-2.0479-0.3906-2.8281-1.1719c-1.5625-1.5615-1.5625-4.0947,0-5.6562  l14.1426-14.1416c1.5625-1.5625,4.0957-1.5625,5.6562,0c1.5625,1.5615,1.5625,4.0947,0,5.6562l-14.1426,14.1416  C40.2228,158.124,39.1994,158.5146,38.1759,158.5146z" fill="#FF5D5D"/><path d="M52.3185,158.5146c-1.0234,0-2.0469-0.3906-2.8281-1.1719l-14.1426-14.1416  c-1.5625-1.5615-1.5625-4.0947,0-5.6562c1.5605-1.5625,4.0938-1.5625,5.6562,0l14.1426,14.1416  c1.5625,1.5615,1.5625,4.0947,0,5.6562C54.3664,158.124,53.3419,158.5146,52.3185,158.5146z" fill="#FF5D5D"/><path d="M148.1759,62.5146c-7.7197,0-14-6.2803-14-14s6.2803-14,14-14s14,6.2803,14,14  S155.8957,62.5146,148.1759,62.5146z M148.1759,42.5146c-3.3086,0-6,2.6914-6,6s2.6914,6,6,6s6-2.6914,6-6  S151.4845,42.5146,148.1759,42.5146z" fill="#00D40B"/><path d="M149.4894,165.1416c-1.0234,0-2.0479-0.3906-2.8281-1.1719l-11.3135-11.3135  c-1.5625-1.5615-1.5625-4.0947,0-5.6562l11.3135-11.3135c1.5605-1.5625,4.0957-1.5625,5.6562,0L163.631,147  c1.5625,1.5615,1.5625,4.0947,0,5.6562l-11.3135,11.3135C151.5373,164.751,150.5128,165.1416,149.4894,165.1416z M143.8332,149.8281  l5.6562,5.6562l5.6562-5.6562l-5.6562-5.6562L143.8332,149.8281z" fill="#FFC504"/></svg>