<?xml version="1.0" encoding="iso-8859-1"?>
<!-- Generator: Adobe Illustrator 19.0.0, SVG Export Plug-In . SVG Version: 6.00 Build 0)  -->
<svg version="1.1" id="Capa_1" xmlns="http://www.w3.org/2000/svg" xmlns:xlink="http://www.w3.org/1999/xlink" x="0px" y="0px"
	 viewBox="0 0 512 512" style="enable-background:new 0 0 512 512;" xml:space="preserve">
<circle style="fill:#FFD93B;" cx="256" cy="256" r="256"/>
<path style="fill:#F4C534;" d="M512,256c0,141.44-114.64,256-256,256c-80.48,0-152.32-37.12-199.28-95.28
	c43.92,35.52,99.84,56.72,160.72,56.72c141.36,0,256-114.56,256-256c0-60.88-21.2-116.8-56.72-160.72
	C474.8,103.68,512,175.52,512,256z"/>
<path style="fill:#3E4347;" d="M353.552,379.344l-187.84,44.8c-5.28,1.28-9.44-4.64-6.4-9.12c29.44-44.32,132.96-182.24,198.4-44.16
	C359.312,374.24,357.232,378.384,353.552,379.344z"/>
<path style="fill:#FFFFFF;" d="M321.072,374.704l-142.88,34.08c21.92-30.56,67.52-85.76,109.12-85.76c2.08,0,4,0.16,5.92,0.48
	L321.072,374.704z"/>
<circle style="fill:#3E4347;" cx="172.128" cy="223.568" r="45.52"/>
<path style="fill:#5A5F63;" d="M201.888,212.464c-3.088,3.68-10.864,2.288-17.312-3.12c-6.48-5.264-9.216-12.72-5.984-16.384
	c3.12-3.84,10.752-2.448,17.2,2.944C202.384,201.344,204.992,208.784,201.888,212.464z"/>
<circle style="fill:#3E4347;" cx="339.872" cy="223.568" r="45.52"/>
<path style="fill:#5A5F63;" d="M369.632,212.464c-3.088,3.68-10.864,2.288-17.312-3.12c-6.48-5.264-9.216-12.72-5.984-16.384
	c3.12-3.84,10.752-2.448,17.2,2.944C370.112,201.344,372.72,208.784,369.632,212.464z"/>
<g>
	<path style="fill:#3E4347;" d="M89.984,182.24c-1.072-16,9.872-49.088,51.344-67.504c29.152-8.304,55.024-10.032,85.264,5.296
		c-24.128,3.936-31.104-0.96-77.952,13.312C124.992,143.28,104.736,158.832,89.984,182.24z"/>
	<path style="fill:#3E4347;" d="M305.376,91.264c14.608,23.152,34.672,38.832,58.656,48.896
		c46.624,14.24,53.872,9.392,77.952,13.312c-29.824,15.12-55.488,13.776-85.264,5.296
		C318.096,141.616,304.176,109.232,305.376,91.264z"/>
</g>
<g>
</g>
<g>
</g>
<g>
</g>
<g>
</g>
<g>
</g>
<g>
</g>
<g>
</g>
<g>
</g>
<g>
</g>
<g>
</g>
<g>
</g>
<g>
</g>
<g>
</g>
<g>
</g>
<g>
</g>
</svg>
