<?xml version="1.0" encoding="iso-8859-1"?>
<!-- Generator: Adobe Illustrator 19.0.0, SVG Export Plug-In . SVG Version: 6.00 Build 0)  -->
<svg version="1.1" id="Capa_1" xmlns="http://www.w3.org/2000/svg" xmlns:xlink="http://www.w3.org/1999/xlink" x="0px" y="0px"
	 viewBox="0 0 512.005 512.005" style="enable-background:new 0 0 512.005 512.005;" xml:space="preserve">
<circle style="fill:#FFD93B;" cx="266.181" cy="259.124" r="245.824"/>
<g>
	<path style="fill:#F4C534;" d="M512.005,259.124c0,135.808-110.08,245.824-245.824,245.824c-77.28,0-146.256-35.648-191.36-91.488
		c42.176,34.112,95.872,54.464,154.336,54.464c135.744,0,245.824-110,245.824-245.824c0-58.464-20.352-112.16-54.464-154.336
		C476.293,112.868,512.005,181.844,512.005,259.124z"/>
	<ellipse style="fill:#F4C534;" cx="104.343" cy="189.314" rx="104.324" ry="104.324"/>
</g>
<ellipse style="fill:#FFFFFF;" cx="104.343" cy="189.314" rx="84.163" ry="84.163"/>
<ellipse style="fill:#3E4347;" cx="104.343" cy="189.314" rx="46.706" ry="46.706"/>
<path style="fill:#FFFFFF;" d="M130.517,179.78c-3.056,4.496-11.6,3.936-18.976-1.072c-7.376-5.008-11.04-12.752-7.984-17.248
	s11.456-3.904,18.976,1.072C129.941,167.684,133.573,175.284,130.517,179.78z"/>
<ellipse transform="matrix(-0.1875 -0.9823 0.9823 -0.1875 287.959 519.6617)" style="fill:#F4C534;" cx="358.905" cy="140.735" rx="133.653" ry="133.637"/>
<ellipse style="fill:#FFFFFF;" cx="358.905" cy="140.735" rx="107.812" ry="107.812"/>
<ellipse style="fill:#3E4347;" cx="358.905" cy="140.735" rx="59.842" ry="59.842"/>
<path style="fill:#FFFFFF;" d="M392.421,128.516c-3.904,5.76-14.864,5.04-24.304-1.376c-9.44-6.416-14.144-16.336-10.224-22.096
	c3.904-5.76,14.672-5.008,24.304,1.376C391.669,113.028,396.326,122.772,392.421,128.516z"/>
<path style="fill:#F4C534;" d="M68.357,287.124c56.816,20.976,119.472-10.56,136.24-69.264
	C148.981,212.676,87.669,242.836,68.357,287.124z"/>
<path style="fill:#FFD93B;" d="M154.341,234.34c-42.368,14.848-73.152,47.088-80.304,79.696l3.904,20.464l156.576-29.888
	l-14.56-76.256C200.373,224.532,177.509,226.148,154.341,234.34z"/>
<path style="fill:#3E4347;" d="M454.965,290.564c-10.768,87.984-59.552,177.952-138.8,178.24
	c-82.288,0.304-191.744-71.52-218.704-143.664c-3.2-8.544,5.68-17.488,14.928-15.104c117.968,30.032,229.376,32.384,325.104-30.832
	C446.438,273.252,456.214,280.468,454.965,290.564z"/>
<path style="fill:#E24B4B;" d="M334.917,433.012c33.008-10.464,66.016-27.088,91.28-48.048
	c-30.464-27.984-79.552-31.808-113.216-4.656c-12.336,10.016-27.552,14.944-43.232,13.392c-28.656-3.056-55.968,8.928-74.016,29.472
	C235.749,450.74,286.885,441.956,334.917,433.012z"/>
<g>
	<path style="fill:#FFFFFF;" d="M316.181,468.804c54.752-0.208,94.944-43.232,118.128-98.816
		c-96.944,88.912-228.896,51.696-278.64,31.36C201.653,440.5,264.293,468.996,316.181,468.804z"/>
	<path style="fill:#FFFFFF;" d="M449.957,319.572c2.096-9.616,3.824-19.312,5.008-29.008c1.232-10.096-8.528-17.312-17.488-11.376
		c-95.712,63.216-207.136,60.864-325.088,30.832c-9.248-2.384-18.112,6.576-14.928,15.104c2.384,6.368,5.616,12.72,9.2,19.04
		C226.053,377.268,340.822,371.604,449.957,319.572z"/>
</g>
<g>
</g>
<g>
</g>
<g>
</g>
<g>
</g>
<g>
</g>
<g>
</g>
<g>
</g>
<g>
</g>
<g>
</g>
<g>
</g>
<g>
</g>
<g>
</g>
<g>
</g>
<g>
</g>
<g>
</g>
</svg>
