<?xml version="1.0" encoding="iso-8859-1"?>
<!-- Generator: Adobe Illustrator 19.0.0, SVG Export Plug-In . SVG Version: 6.00 Build 0)  -->
<svg version="1.1" id="Capa_1" xmlns="http://www.w3.org/2000/svg" xmlns:xlink="http://www.w3.org/1999/xlink" x="0px" y="0px"
	 viewBox="0 0 512 512" style="enable-background:new 0 0 512 512;" xml:space="preserve">
<circle style="fill:#FFD93B;" cx="256" cy="256" r="256"/>
<path style="fill:#F4C534;" d="M512,256c0,141.44-114.64,256-256,256c-80.48,0-152.32-37.12-199.28-95.28
	c43.92,35.52,99.84,56.72,160.72,56.72c141.36,0,256-114.56,256-256c0-60.88-21.2-116.8-56.72-160.72
	C474.8,103.68,512,175.52,512,256z"/>
<path style="fill:#303538;" d="M498.528,182.64c0,56.864-41.072,113.904-112.368,113.904c-45.824,0-88.608-26.144-106.096-68.416
	c-6.112-14.768-14.096-24.944-24.112-24.944c-10.016,0-18,10.176-24.096,25.12c-17.152,42.096-59.744,68.24-105.408,68.24h-0.512
	C1.68,296.544-30.736,124.08,85.36,79.6c52.112-19.872,114.416-28.176,170.592-28.176c56.352,0,118.656,8.32,170.768,28.352
	C475.952,98.624,498.528,140.72,498.528,182.64z"/>
<path style="fill:#3E4347;" d="M386.16,275.328c-38.64,0-72.592-21.712-86.48-55.296c-12.992-31.472-30.944-38.064-43.712-38.064
	c-12.8,0-30.784,6.64-43.744,38.288c-13.408,32.96-47.872,55.072-85.776,55.072c-56.448,0-83.744-40.24-90.112-74.704
	C30,166.368,41.024,119.312,92.96,99.408C138.272,82.16,196.16,72.64,255.968,72.64c60.016,0,117.968,9.568,163.168,26.944
	c36.432,13.952,58.192,45.008,58.192,83.072C477.312,227.568,445.36,275.328,386.16,275.328z"/>
<g>
	<path style="fill:#5A5F63;" d="M143.552,84.56L35.248,192.848c0.272,2.64,0.608,5.232,1.072,7.76
		c1.008,5.424,2.576,10.976,4.656,16.496L180.112,77.968C167.552,79.744,155.344,81.936,143.552,84.56z"/>
	<path style="fill:#5A5F63;" d="M197.952,75.776L45.776,227.952c8.592,16.512,22.496,31.568,42.672,40.08L283.104,73.376
		c-8.992-0.432-18.032-0.736-27.152-0.736C236.272,72.64,216.848,73.776,197.952,75.776z"/>
	<path style="fill:#5A5F63;" d="M419.12,99.584c-0.736-0.288-1.536-0.512-2.272-0.8L298.352,217.28
		c0.432,0.96,0.896,1.728,1.312,2.752c2.464,5.952,5.744,11.376,9.392,16.528L436.88,108.736
		C431.392,105.232,425.584,102.048,419.12,99.584z"/>
	<path style="fill:#5A5F63;" d="M370.064,273.936l106.048-106.048c-3.328-21.136-13.888-39.296-30.112-52.64l-130,130
		C329.824,260.288,348.752,270.496,370.064,273.936z"/>
</g>
<path style="fill:#3E4347;" d="M372.208,392.64c-15.728,25.776-45.056,49.824-119.376,65.216
	c-75.2,17.568-98.48-15.248-113.856-70.32c-16.496-55.728,0.672-92.096,120.976-65.008
	C379.392,346.192,388.352,366.736,372.208,392.64z"/>
<path style="fill:#FFFFFF;" d="M310.416,393.952c15.12,3.152,30.64,4.544,46.704,3.408c-30.672,23.664-74.48,43.696-103.824,46.176
	c-74.72,14.4-91.04-23.36-97.76-45.92c30.08,3.36,52.32-1.92,52.32-1.92c-19.84-4.16-43.68-14.24-57.76-20.64
	c-4.16-23.04-1.76-57.44,103.36-36.96c52.96,8.8,93.728,23.76,107.008,31.92C343.456,386.032,310.416,393.952,310.416,393.952z"/>
<g>
</g>
<g>
</g>
<g>
</g>
<g>
</g>
<g>
</g>
<g>
</g>
<g>
</g>
<g>
</g>
<g>
</g>
<g>
</g>
<g>
</g>
<g>
</g>
<g>
</g>
<g>
</g>
<g>
</g>
</svg>
