<?xml version="1.0" ?><svg id="Layer_1" style="enable-background:new 0 0 512 512;" version="1.1" viewBox="0 0 512 512" xml:space="preserve" xmlns="http://www.w3.org/2000/svg" xmlns:xlink="http://www.w3.org/1999/xlink"><style type="text/css">
	.st0{fill:#ffffff;}
</style><g id="XMLID_93_"><g id="XMLID_92_"><path class="st0" d="M21.1,380.5c-5,0-10-2.5-12.8-7.1c-4.4-7.1-2.2-16.4,4.9-20.7l112.6-69.9    c4.2-2.6,9.5-3,14.1-1l106.3,47.6l209.8-160.2c6.6-5,16.1-3.8,21.1,2.8c5,6.6,3.8,16.1-2.8,21.1L257.3,358.7    c-4.4,3.4-10.3,4-15.3,1.8l-107.2-47.9L29,378.2C26.5,379.7,23.8,380.5,21.1,380.5z" id="XMLID_173_"/></g><polygon class="st0" id="XMLID_91_" points="375,162.8 506,131.5 467.6,260.6  "/></g></svg>
