<?xml version="1.0" encoding="UTF-8"?>
<!DOCTYPE svg PUBLIC "-//W3C//DTD SVG 1.1//EN" "http://www.w3.org/Graphics/SVG/1.1/DTD/svg11.dtd">
<!-- Creator: CorelDRAW X6 -->
<svg xmlns="http://www.w3.org/2000/svg" xml:space="preserve" width="100%" height="100%" version="1.1" style="shape-rendering:geometricPrecision; text-rendering:geometricPrecision; image-rendering:optimizeQuality; fill-rule:evenodd; clip-rule:evenodd"
viewBox="0 0 500 500"
 xmlns:xlink="http://www.w3.org/1999/xlink">
 <defs>
  <style type="text/css">
    .fil1 {fill:#ccc;}
  </style>
 </defs>
 <g id="Layer_x0020_1">
  <metadata id="CorelCorpID_0Corel-Layer"/>
  <path class="fil1" d="M289 90c53,52 53,138 0,191 -53,53 -138,53 -191,0 -53,-53 -53,-139 0,-191 53,-53 138,-53 191,0zm27 -27c59,59 67,149 23,216l125 104c22,18 21,53 0,73 -20,21 -55,22 -73,0l-104 -125c-67,43 -157,35 -216,-23 -68,-68 -68,-178 0,-245 68,-68 177,-68 245,0z"/>
 </g>
</svg>
