<?xml version="1.0" encoding="iso-8859-1"?>
<!-- Generator: Adobe Illustrator 19.0.0, SVG Export Plug-In . SVG Version: 6.00 Build 0)  -->
<svg version="1.1" id="Capa_1" xmlns="http://www.w3.org/2000/svg" xmlns:xlink="http://www.w3.org/1999/xlink" x="0px" y="0px"
	 viewBox="0 0 512 512" style="enable-background:new 0 0 512 512;" xml:space="preserve">
<path style="fill:#008AC1;" d="M139.472,195.702l-35.43-51.852c-3.268-4.783,0.157-11.272,5.951-11.272h47.678
	c1.435,0,2.838,0.429,4.029,1.231l78.498,52.918"/>
<path style="fill:#E3E8EC;" d="M512,253.346c0,7.041-4.771,13.192-11.591,14.95l-17.827,4.603
	c-62.205,16.048-126.188,24.177-190.433,24.177H60.664c-29.69,0-54.202-23.204-55.834-52.852l-3.452-62.979
	c-0.031-0.408-0.052-0.806-0.073-1.203l-1.288-23.486c-0.346-6.308,4.675-11.612,10.993-11.612h19.891
	c11.221,0,21.279,6.922,25.286,17.404l15.075,39.434l314.864-28.058c14.06-1.255,27.671,5.335,35.402,17.147l19.197,29.303
	l60.332,18.392c3.243,0.994,5.984,2.992,7.909,5.587C510.891,246.745,512,249.946,512,253.346z"/>
<path style="fill:#D5D8DB;" d="M512,253.346c0,7.041-4.771,13.192-11.591,14.95l-17.827,4.603
	c-62.205,16.048-126.188,24.177-190.433,24.177H60.664c-29.69,0-54.202-23.204-55.834-52.852l-3.452-62.979
	c2.521,40.696,21.133,97.869,163.505,97.869c143.774,0,297.55-15.42,336.174-40.549c3.243,0.994,5.984,2.992,7.909,5.587
	C510.891,246.745,512,249.946,512,253.346z"/>
<g>
	<path style="fill:#008AC1;" d="M440.725,220.172l-30.094,6.879c-14.329,3.276-28.927-4.283-34.524-17.875l0,0
		c-0.685-1.663,0.236-3.552,1.969-4.036l44.628-12.471"/>
	<path style="fill:#008AC1;" d="M164.884,279.115h143.773l-146.744,98.928c-1.333,0.899-2.904,1.379-4.511,1.379h-45.773
		c-6.487,0-10.324-7.267-6.663-12.623L164.884,279.115z"/>
	<circle style="fill:#008AC1;" cx="144.151" cy="236.548" r="14.907"/>
	<circle style="fill:#008AC1;" cx="208.94" cy="234.455" r="14.907"/>
	<circle style="fill:#008AC1;" cx="276.418" cy="231.317" r="14.907"/>
</g>
<g>
</g>
<g>
</g>
<g>
</g>
<g>
</g>
<g>
</g>
<g>
</g>
<g>
</g>
<g>
</g>
<g>
</g>
<g>
</g>
<g>
</g>
<g>
</g>
<g>
</g>
<g>
</g>
<g>
</g>
</svg>
