<svg id="Capa_1" enable-background="new 0 0 512 512" height="512" viewBox="0 0 512 512" width="512" xmlns="http://www.w3.org/2000/svg"><g><g><path clip-rule="evenodd" d="m262.309 243.599 58.871 59.81c7.338 7.483 9.236 9.269 21.729 9.269h63.29v-145.953h-92.669c-12.494 0-14.392-1.786-21.73-9.269l-58.871-59.81c-6.658-6.775-9.264-12.047-18.443-5.471-8.301 5.924-12.522 19.275-12.069 30.699.51 12.387 2.805 15.902 11.191 25.2l17.707 19.615h-73.858c-3.626 15.137-14.534 26.702-28.161 31.776 1.671 5.386 2.578 11.055 2.606 16.866 0 4.28-.453 8.617-1.417 12.954-1.926 8.561-5.638 16.242-10.681 22.762 9.491 1.502 18.245 6.066 24.931 12.954 4.76 4.904 8.443 10.97 10.567 17.971 3.201 10.516 2.295 21.316-1.785 30.67h107.175l-17.707-19.615c-8.386-9.297-10.681-12.784-11.191-25.2-.453-11.423 3.768-24.774 12.069-30.699 9.182-6.548 11.788-1.304 18.446 5.471z" fill="#ffdcd5" fill-rule="evenodd"/></g><g><path clip-rule="evenodd" d="m158.704 502h138.366c30.767 0 23.486-22.195 51.392-22.195h87.116v-167.127h-29.378-63.29c-12.494 0-14.392-1.786-21.729-9.269l-58.871-59.81c-6.658-6.775-9.264-12.019-18.443-5.471-8.301 5.924-12.522 19.275-12.069 30.699.51 12.416 2.805 15.902 11.191 25.2l17.707 19.615h-107.176c-2.89 6.661-7.423 12.586-13.23 17.149 11.332 5.131 20.511 14.938 24.421 27.807.368 1.219.68 2.466.935 3.713 4.193 19.502-5.156 39.287-22.324 48.642-2.635 1.446-5.439 2.636-8.443 3.543-7.649 2.324-15.412 2.494-22.693.879-6.261 4.422-10.397 11.707-10.397 19.899 0 13.379 10.964 24.321 24.336 24.321h32.58c-11.644 0-21.163 9.553-21.163 21.203-.001 11.649 9.518 21.202 21.162 21.202z" fill="#ffdcd5" fill-rule="evenodd"/></g><g><path clip-rule="evenodd" d="m21.641 406.984c5.864 19.304 26.262 30.188 45.527 24.321 12.777-3.912 21.871-14.173 24.846-26.277 5.723 5.102 12.664 8.674 20.171 10.346 7.281 1.616 15.044 1.446 22.693-.879 3.003-.907 5.808-2.098 8.443-3.543 17.168-9.354 26.517-29.14 22.324-48.642-.255-1.247-.567-2.494-.935-3.713-3.91-12.869-13.089-22.677-24.421-27.807 5.808-4.564 10.341-10.488 13.23-17.149 4.08-9.354 4.986-20.154 1.785-30.67-2.125-7.001-5.808-13.067-10.567-17.971-6.686-6.888-15.44-11.452-24.931-12.954-6.431-1.049-13.202-.652-19.86 1.361-1.473.454-2.918.992-4.306 1.559-6.318-7.994-16.12-13.124-27.084-13.124-13.769 0-25.639 8.079-31.192 19.729-2.125 4.479-3.315 9.496-3.315 14.797 0 7.653 2.465 14.712 6.686 20.437-19.066 12.954-28.359 37.218-21.305 60.405 1.87 6.179 4.731 11.764 8.386 16.639-7.082 9.041-9.773 21.287-6.175 33.135z" fill="#99ebfa" fill-rule="evenodd"/></g><g><path clip-rule="evenodd" d="m37.364 261.57c5.553-11.65 17.423-19.729 31.192-19.729 10.964 0 20.766 5.131 27.084 13.124 1.388-.567 2.833-1.105 4.306-1.559 6.658-2.013 13.429-2.409 19.86-1.361 5.043-6.52 8.754-14.201 10.681-22.762.963-4.337 1.417-8.674 1.417-12.954-.028-5.811-.935-11.48-2.606-16.866 13.627-5.074 24.534-16.639 28.161-31.776.028-.198.085-.425.142-.624 5.439-24.292-9.831-48.386-34.082-53.829-24.279-5.442-48.36 9.836-53.8 34.1-.878 3.883-1.218 7.738-1.077 11.537-24.364 2.239-45.584 19.87-51.222 45.042-4.958 22.168 3.484 44.221 19.944 57.657z" fill="#99ebfa" fill-rule="evenodd"/></g><g><path clip-rule="evenodd" d="m21.613 45.121c0 18.255 14.789 33.023 33.033 33.023 18.217 0 33.005-14.768 33.005-33.023 0-18.226-14.789-33.023-33.005-33.023-18.245 0-33.033 14.796-33.033 33.023z" fill="#99ebfa" fill-rule="evenodd"/></g><g><path clip-rule="evenodd" d="m143.661 33.839c0 13.181 10.652 23.839 23.826 23.839 13.145 0 23.826-10.658 23.826-23.839s-10.681-23.839-23.826-23.839c-13.174 0-23.826 10.658-23.826 23.839z" fill="#99ebfa" fill-rule="evenodd"/></g><g><path clip-rule="evenodd" d="m435.579 480.174c0 11.395 9.321 20.721 20.71 20.721h19.01c11.389 0 20.71-9.326 20.71-20.721v-167.893c0-11.395-9.321-20.721-20.71-20.721h-8.669-10.341c-11.389 0-20.71 9.326-20.71 20.721v.397 83.564.028 83.535z" fill="#ffcd69" fill-rule="evenodd"/></g><g><path clip-rule="evenodd" d="m406.2 312.678h29.379v-.397c0-11.395 9.321-20.721 20.71-20.721h10.341v-125.232c0-11.395-9.321-20.721-20.71-20.721h-19.01c-11.389 0-20.71 9.326-20.71 20.721v.397z" fill="#ffcd69" fill-rule="evenodd"/></g><g><path d="m476.629 281.594v-115.266c0-16.939-13.776-30.721-30.71-30.721h-19.01c-13.581 0-25.123 8.868-29.164 21.118h-84.215c-8.44 0-8.44 0-14.603-6.284l-58.865-59.805c-.806-.819-1.546-1.616-2.245-2.367-4.903-5.263-14.03-15.06-29.14-4.234-11.963 8.539-16.782 25.858-16.251 39.25.637 15.472 4.479 21.2 13.759 31.489l2.631 2.915h-40.133c.225-25.385-17.247-48.436-42.979-54.21-29.615-6.641-59.106 12.055-65.741 41.653-.385 1.702-.688 3.417-.908 5.142-25.439 5.674-45.572 25.465-51.395 51.459-5.127 22.921 1.746 46.335 18.019 62.723-1.055 3.794-1.631 7.786-1.631 11.912 0 6.274 1.278 12.347 3.746 17.944-18.031 16.47-25.221 41.843-17.935 65.793 1.47 4.858 3.477 9.466 5.991 13.768-6.013 10.899-7.458 23.899-3.778 36.018 3.612 11.89 11.637 21.662 22.597 27.514 6.833 3.649 14.294 5.501 21.826 5.501 4.549 0 9.123-.675 13.601-2.039 9.476-2.901 17.655-8.769 23.5-16.474-1.174 3.472-1.808 7.139-1.808 10.88 0 18.924 15.403 34.321 34.336 34.321h3.502c-1.342 3.48-2.085 7.255-2.085 11.203 0 17.205 13.979 31.203 31.163 31.203h138.366c19.925 0 28.217-8.358 34.271-14.46 4.785-4.823 7.673-7.734 17.12-7.734h78.672c4.049 12.235 15.584 21.089 29.155 21.089h19.01c16.934 0 30.71-13.781 30.71-30.721v-167.893c0-16.493-13.061-29.987-29.379-30.687zm-60.429-115.266c0-5.912 4.804-10.721 10.709-10.721h19.01c5.905 0 10.71 4.809 10.71 10.721v115.232h-.341c-13.581 0-25.123 8.868-29.164 21.118h-10.924zm-189.164 11.36c6.855 7.432 12.101 15.04 14.934 21.715 1.617 3.809 5.317 6.095 9.21 6.095 1.303 0 2.628-.256 3.902-.797 5.084-2.158 7.456-8.029 5.298-13.113-5.308-12.504-14.729-23.587-21.77-30.742l-17.576-19.471c-7.29-8.083-8.236-9.478-8.624-18.898-.357-9.016 3.106-18.751 7.901-22.173.311-.222.582-.405.817-.556.649.646 1.42 1.474 2.055 2.154.813.874 1.678 1.799 2.62 2.758l58.857 59.797c8.91 9.087 13.408 12.268 28.869 12.268h82.67v125.953h-53.291c-8.441 0-8.441 0-14.603-6.284l-58.865-59.804c-.801-.814-1.537-1.605-2.232-2.351-4.901-5.257-14.02-15.043-29.152-4.25-11.963 8.539-16.782 25.858-16.251 39.249.635 15.471 4.478 21.199 13.759 31.49l2.631 2.915h-71.482c1.088-7.708.54-15.732-1.842-23.584-.528-1.733-1.136-3.419-1.817-5.058h12.648c5.522 0 10-4.477 10-10s-4.478-10-10-10h-27.053c-4.082-3.563-8.664-6.496-13.586-8.706 2.27-4.683 4.014-9.63 5.183-14.822.382-1.704.677-3.421.927-5.142h34.531c5.522 0 10-4.477 10-10s-4.478-10-10-10h-34.606c-.066-.429-.116-.861-.19-1.289 10.841-6.173 19.225-15.794 23.84-27.353h62.288zm-199.858 28.412c4.565-20.382 21.596-35.359 42.379-37.27 5.289-.486 9.276-5.022 9.078-10.331-.111-2.995.17-6.009.841-8.977 4.227-18.854 22.995-30.757 41.853-26.53 18.844 4.229 30.738 23.019 26.513 41.888-2.598 11.608-10.837 21.034-22.04 25.214-4.975 1.856-7.632 7.278-6.05 12.347 2.476 7.939 2.814 16.464.98 24.646-1.166 5.18-3.119 10.023-5.821 14.458-5.408-.213-10.929.375-16.403 1.869-8.134-7.425-18.718-11.574-29.951-11.574-12.817 0-24.378 5.455-32.507 14.158-8.678-11.161-12.056-25.663-8.872-39.898zm61.875 189.377c-3.352 1.039-5.913 3.758-6.75 7.165-2.259 9.189-9.011 16.33-18.049 19.097-6.762 2.059-13.922 1.357-20.164-1.976-6.247-3.336-10.821-8.907-12.881-15.684-2.513-8.278-.838-17.274 4.48-24.064 2.788-3.56 2.841-8.547.129-12.165-3.026-4.037-5.319-8.591-6.82-13.551-5.645-18.554 1.331-38.335 17.357-49.224 2.249-1.528 3.778-3.906 4.236-6.585.459-2.68-.193-5.431-1.808-7.62-3.097-4.202-4.734-9.217-4.734-14.503 0-13.523 10.994-24.525 24.507-24.525 7.542 0 14.555 3.399 19.238 9.325 2.764 3.495 7.506 4.74 11.628 3.056 1.281-.523 2.415-.936 3.429-1.248 18.125-5.502 37.362 4.774 42.884 22.899 2.365 7.796 1.898 15.862-1.003 22.992-.237.435-.432.895-.604 1.367-2.227 4.851-5.595 9.222-10.016 12.694-2.748 2.159-4.17 5.595-3.751 9.064.42 3.469 2.619 6.468 5.803 7.91 9.148 4.142 16.065 12.016 18.979 21.606.264.868.481 1.74.674 2.612.039.213.088.422.14.63 3.039 15.013-4.201 30.183-17.397 37.408-.009.005-.017.01-.026.015-2.05 1.12-4.241 2.05-6.562 2.756-5.707 1.733-11.587 1.956-17.178.795-.288-.078-.58-.142-.873-.194-5.554-1.305-10.794-3.986-15.249-7.962-2.618-2.335-6.265-3.128-9.619-2.09zm396.955 84.697c0 5.912-4.805 10.721-10.71 10.721h-19.01c-5.905 0-10.709-4.809-10.709-10.721v-38.834c0-5.523-4.478-10-10-10s-10 4.477-10 10v28.465h-77.117c-17.777 0-25.604 7.888-31.318 13.648-5.106 5.147-8.48 8.547-20.074 8.547h-138.366c-6.155 0-11.163-5.025-11.163-11.203s5.008-11.203 11.163-11.203h50.344c5.522 0 10-4.477 10-10s-4.478-10-10-10h-82.924c-7.905 0-14.336-6.424-14.336-14.321 0-3.387 1.25-6.643 3.435-9.217 7.431.898 15.093.275 22.567-1.994 2.767-.842 5.416-1.888 7.942-3.11h59.349c5.522 0 10-4.477 10-10s-4.478-10-10-10h-36.989c5.368-8.479 8.413-18.381 8.549-28.642h28.44c5.522 0 10-4.477 10-10s-4.478-10-10-10h-31.959c-3.48-9.241-9.368-17.318-16.982-23.43 1.292-1.684 2.474-3.435 3.549-5.24h101.006c3.952 0 7.533-2.327 9.138-5.938s.934-7.829-1.715-10.762l-17.704-19.613c-7.291-8.083-8.237-9.479-8.624-18.898-.357-9.016 3.106-18.751 7.885-22.162.317-.226.594-.412.834-.563.653.649 1.433 1.485 2.073 2.172.808.867 1.665 1.784 2.601 2.737l58.857 59.796c8.911 9.087 13.409 12.268 28.87 12.268h82.67v28.437c0 5.523 4.478 10 10 10s10-4.477 10-10v-38.834c0-5.912 4.804-10.721 10.709-10.721h19.01c5.905 0 10.71 4.809 10.71 10.721v167.894z"/><path d="m54.647 88.144c23.713 0 43.005-19.3 43.005-43.023s-19.293-43.023-43.005-43.023c-23.729 0-43.034 19.3-43.034 43.023s19.304 43.023 43.034 43.023zm0-66.046c12.685 0 23.005 10.328 23.005 23.023s-10.32 23.023-23.005 23.023c-12.701 0-23.034-10.328-23.034-23.023s10.332-23.023 23.034-23.023z"/><path d="m167.486 67.678c18.651 0 33.826-15.18 33.826-33.839s-15.174-33.839-33.826-33.839-33.826 15.18-33.826 33.839 15.175 33.839 33.826 33.839zm0-47.678c7.624 0 13.826 6.208 13.826 13.839s-6.202 13.839-13.826 13.839-13.826-6.208-13.826-13.839 6.202-13.839 13.826-13.839z"/><path d="m435.579 386.241c-5.522 0-10 4.477-10 10v.028c0 5.523 4.478 9.986 10 9.986s10-4.491 10-10.014-4.477-10-10-10z"/></g></g></svg>