<svg height="512pt" viewBox="-27 0 512 512" width="512pt" xmlns="http://www.w3.org/2000/svg"><path d="m0 0 44.265625 461.5 185.160156 50.5 185.164063-50.5 44.265625-461.5zm386.476562 437.820312-157.050781 42.832032-157.046875-42.832032-39.097656-407.578124h392.289062zm0 0"/><path d="m99.636719 275.933594h178.261719l-2.945313 45.933594-44.363281 14.480468-46.734375-14.4375v-25.039062h-85.816407v86.21875l132.527344 41.21875 123.488282-35.917969 16.085937-194.914063-193.957031-2.226562-2.242188-20.054688 196.863282.003907v-82.734375h-292.09375zm240.929687-157.226563v22.25l-200.4375-.007812 8.972656 80.234375 188.226563 2.160156-11.699219 141.816406-94.769531 27.566406-102.574219-31.902343v-33.707031h25.328125v17.101562l77.226563 23.859375 72.980468-23.820313 6.320313-98.566406h-183.449219l-14.175781-126.984375zm0 0"/></svg>