<?xml version="1.0" encoding="UTF-8"?>
<!DOCTYPE svg PUBLIC "-//W3C//DTD SVG 1.1//EN" "http://www.w3.org/Graphics/SVG/1.1/DTD/svg11.dtd">
<!-- Creator: CorelDRAW X6 -->
<svg xmlns="http://www.w3.org/2000/svg" xml:space="preserve" width="100%" height="100%" version="1.1" style="shape-rendering:geometricPrecision; text-rendering:geometricPrecision; image-rendering:optimizeQuality; fill-rule:evenodd; clip-rule:evenodd"
viewBox="0 0 500 500"
 xmlns:xlink="http://www.w3.org/1999/xlink">
 <defs>
  <style type="text/css">
   <![CDATA[
    .fil8 {fill:#0062A4}
    .fil10 {fill:#5DBEFF}
    .fil4 {fill:url(#id0)}
    .fil9 {fill:url(#id1)}
    .fil6 {fill:url(#id2)}
    .fil7 {fill:url(#id3)}
    .fil1 {fill:url(#id4)}
    .fil3 {fill:url(#id5)}
    .fil5 {fill:url(#id6)}
    .fil0 {fill:url(#id7)}
    .fil2 {fill:url(#id8)}
   ]]>
  </style>
  <linearGradient id="id0" gradientUnits="userSpaceOnUse" x1="315.807" y1="217.378" x2="184.195" y2="217.378">
   <stop offset="0" style="stop-color:#BEBEBE"/>
   <stop offset="0.388235" style="stop-color:#F2F2F2"/>
   <stop offset="0.588235" style="stop-color:#CBCBCB"/>
   <stop offset="0.870588" style="stop-color:#B1B1B1"/>
   <stop offset="1" style="stop-color:#A4A4A4"/>
  </linearGradient>
  <linearGradient id="id1" gradientUnits="userSpaceOnUse" x1="245.501" y1="395.594" x2="254.501" y2="395.594">
   <stop offset="0" style="stop-color:#0081D8"/>
   <stop offset="0.2" style="stop-color:#4EB7FF"/>
   <stop offset="0.580392" style="stop-color:#008DEB"/>
   <stop offset="1" style="stop-color:#006AB1"/>
  </linearGradient>
  <linearGradient id="id2" gradientUnits="userSpaceOnUse" x1="202.532" y1="107.621" x2="297.471" y2="107.621">
   <stop offset="0" style="stop-color:#0081D8"/>
   <stop offset="0.54902" style="stop-color:#4EB7FF"/>
   <stop offset="0.780392" style="stop-color:#008DEB"/>
   <stop offset="1" style="stop-color:#006AB1"/>
  </linearGradient>
  <linearGradient id="id3" gradientUnits="userSpaceOnUse" x1="230.312" y1="425.24" x2="269.69" y2="425.24">
   <stop offset="0" style="stop-color:#303030"/>
   <stop offset="0.219608" style="stop-color:#606060"/>
   <stop offset="1" style="stop-color:#202020"/>
  </linearGradient>
  <linearGradient id="id4" gradientUnits="userSpaceOnUse" x1="186.021" y1="392.38" x2="166.887" y2="392.38">
   <stop offset="0" style="stop-color:#2EACFF"/>
   <stop offset="1" style="stop-color:#0078C8"/>
  </linearGradient>
  <linearGradient id="id5" gradientUnits="userSpaceOnUse" xlink:href="#id4" x1="333.112" y1="392.38" x2="313.978" y2="392.38">
  </linearGradient>
  <linearGradient id="id6" gradientUnits="userSpaceOnUse" x1="273.995" y1="58.335" x2="226.008" y2="58.335">
   <stop offset="0" style="stop-color:#C82800"/>
   <stop offset="0.501961" style="stop-color:#FF4617"/>
   <stop offset="1" style="stop-color:#C82800"/>
  </linearGradient>
  <linearGradient id="id7" gradientUnits="userSpaceOnUse" x1="168.886" y1="399.909" x2="210.64" y2="384.851">
   <stop offset="0" style="stop-color:#2EACFF"/>
   <stop offset="0.690196" style="stop-color:#008EED"/>
   <stop offset="1" style="stop-color:#0078C8"/>
  </linearGradient>
  <linearGradient id="id8" gradientUnits="userSpaceOnUse" xlink:href="#id7" x1="289.359" y1="399.909" x2="331.113" y2="384.851">
  </linearGradient>
 </defs>
 <g id="Layer_x0020_1">
  <metadata id="CorelCorpID_0Corel-Layer"/>
  <path class="fil0" d="M190 305c0,27 -28,27 -28,55l0 120 22 0 33 -88 -27 -87z"/>
  <path class="fil1" d="M190 305c0,2 0,4 -1,6 1,-1 1,-3 2,-4l-1 -2zm-24 39c-2,4 -4,9 -4,16l0 120 22 0 2 -5 -21 0 0 -121c0,-4 1,-7 1,-10z"/>
  <path class="fil2" d="M310 305c0,27 28,27 28,55l0 120 -22 0 -33 -88 27 -87z"/>
  <path class="fil3" d="M310 305c0,2 0,4 1,6 -1,-1 -1,-3 -2,-4l1 -2zm24 39c2,4 4,9 4,16l0 120 -22 0 -2 -5 21 0 0 -121c0,-4 -1,-7 -1,-10z"/>
  <path class="fil4" d="M225 414c17,0 29,1 50,0 27,-55 41,-115 41,-175 0,-77 -11,-164 -66,-219 -55,55 -66,142 -66,219 0,60 14,120 41,175z"/>
  <path class="fil5" d="M204 97l92 0c-10,-29 -25,-56 -46,-77 -21,21 -36,48 -46,77z"/>
  <path class="fil6" d="M303 119c-2,-8 -4,-15 -7,-22l-92 0c-3,7 -5,14 -7,22l106 0z"/>
  <polygon class="fil7" points="233,414 224,436 276,436 267,415 "/>
  <path class="fil8" d="M250 252c14,0 25,11 25,25 0,14 -11,25 -25,25 -14,0 -25,-11 -25,-25 0,-14 11,-25 25,-25zm0 -120c14,0 25,12 25,25 0,14 -11,25 -25,25 -14,0 -25,-11 -25,-25 0,-13 11,-25 25,-25zm0 60c14,0 25,11 25,25 0,14 -11,25 -25,25 -14,0 -25,-11 -25,-25 0,-14 11,-25 25,-25z"/>
  <path class="fil9" d="M245 316c0,-3 2,-5 5,-5 3,0 5,2 5,5l0 159c0,3 -2,5 -5,5 -3,0 -5,-2 -5,-5l0 -159z"/>
  <path class="fil10" d="M250 137c11,0 20,9 20,20 0,11 -9,20 -20,20 -11,0 -20,-9 -20,-20 0,-11 9,-20 20,-20zm0 60c11,0 20,9 20,20 0,11 -9,20 -20,20 -11,0 -20,-9 -20,-20 0,-11 9,-20 20,-20zm0 60c11,0 20,9 20,20 0,11 -9,20 -20,20 -11,0 -20,-9 -20,-20 0,-11 9,-20 20,-20z"/>
 </g>
</svg>
